<svg xmlns="http://www.w3.org/2000/svg" xmlns:xlink="http://www.w3.org/1999/xlink" viewBox="0 0 617.67 493.49"><defs><style>.cls-1{fill:#c5daed;}.cls-2{fill:url(#linear-gradient);}.cls-3{fill:#465670;}.cls-4{opacity:0.03;}.cls-26,.cls-5,.cls-52{fill:#010101;}.cls-6{fill:url(#linear-gradient-2);}.cls-7{fill:url(#linear-gradient-3);}.cls-8{fill:url(#linear-gradient-4);}.cls-9{fill:url(#linear-gradient-5);}.cls-10{fill:url(#linear-gradient-6);}.cls-11{fill:url(#linear-gradient-7);}.cls-12{fill:url(#linear-gradient-8);}.cls-13{fill:url(#linear-gradient-9);}.cls-14{fill:url(#linear-gradient-10);}.cls-15{fill:url(#linear-gradient-11);}.cls-16{fill:url(#linear-gradient-12);}.cls-17{fill:url(#linear-gradient-13);}.cls-18{fill:url(#linear-gradient-14);}.cls-19{fill:url(#linear-gradient-15);}.cls-20{fill:url(#linear-gradient-16);}.cls-21{fill:url(#linear-gradient-17);}.cls-22{fill:url(#linear-gradient-18);}.cls-23{fill:url(#linear-gradient-19);}.cls-24{fill:url(#linear-gradient-20);}.cls-25{fill:url(#linear-gradient-21);}.cls-26{opacity:0.19;}.cls-27{fill:url(#linear-gradient-22);}.cls-28{fill:url(#linear-gradient-23);}.cls-29{fill:url(#linear-gradient-24);}.cls-30{fill:#ffe5b1;}.cls-31{fill:#14161a;}.cls-32{fill:#f1f5fb;}.cls-33{fill:#eb857b;}.cls-34{fill:#d36863;}.cls-35{fill:#f5938f;}.cls-36{fill:#3b768e;}.cls-37{fill:#dfdfdf;}.cls-38{fill:#f8d79f;}.cls-39{fill:#fab07b;}.cls-40{fill:#bee2f8;}.cls-41{fill:url(#linear-gradient-25);}.cls-42{fill:#66b4dc;}.cls-43{fill:url(#linear-gradient-26);}.cls-44{fill:#9da4a7;}.cls-45{fill:#bbc3c6;}.cls-46{fill:url(#linear-gradient-27);}.cls-47{fill:url(#linear-gradient-28);}.cls-48{fill:url(#linear-gradient-29);}.cls-49{fill:url(#linear-gradient-30);}.cls-50{fill:url(#linear-gradient-31);}.cls-51{fill:url(#linear-gradient-32);}.cls-52{opacity:0.08;}.cls-53{fill:#3c4451;}.cls-54{fill:url(#linear-gradient-33);}.cls-55{fill:url(#linear-gradient-34);}.cls-56{fill:url(#linear-gradient-35);}.cls-57{opacity:0.06;fill:url(#linear-gradient-36);}.cls-58{fill:url(#linear-gradient-37);}.cls-59{fill:url(#linear-gradient-38);}.cls-60{opacity:0.5;fill:url(#linear-gradient-39);}.cls-61{fill:#c6dbf2;}.cls-62{fill:#99bce3;}.cls-63{fill:#d2e9f9;}.cls-64{fill:#fff;}.cls-65{fill:#eaf4fc;}.cls-66{fill:#d1e3f5;}.cls-67{fill:#f7fcfe;}.cls-68{fill:url(#linear-gradient-40);}.cls-69{fill:url(#linear-gradient-41);}.cls-70{fill:url(#linear-gradient-42);}.cls-71{fill:url(#linear-gradient-43);}.cls-72{fill:url(#linear-gradient-44);}.cls-73{fill:url(#linear-gradient-45);}.cls-74{fill:url(#linear-gradient-46);}.cls-75{fill:url(#linear-gradient-47);}.cls-76{fill:url(#linear-gradient-48);}.cls-77{fill:#508cca;}.cls-78{fill:url(#linear-gradient-49);}.cls-79{fill:url(#linear-gradient-50);}.cls-80{fill:url(#linear-gradient-51);}.cls-81{fill:#d4dded;}</style><linearGradient id="linear-gradient" x1="914.65" y1="448.64" x2="659.05" y2="195.67" gradientTransform="matrix(1, 0.01, -0.01, 1, 2.27, -4.26)" gradientUnits="userSpaceOnUse"><stop offset="0.01" stop-color="#f0f4fa" stop-opacity="0.9"/><stop offset="0.23" stop-color="#f0f4fa"/><stop offset="0.66" stop-color="#eff3fa"/><stop offset="1" stop-color="#d4dded"/></linearGradient><linearGradient id="linear-gradient-2" x1="737.23" y1="271.2" x2="792.52" y2="271.2" gradientUnits="userSpaceOnUse"><stop offset="0" stop-color="#f6cf87"/><stop offset="1" stop-color="#f5b366"/></linearGradient><linearGradient id="linear-gradient-3" x1="710.85" y1="246.37" x2="736.58" y2="246.37" gradientUnits="userSpaceOnUse"><stop offset="0" stop-color="#55c2ef"/><stop offset="0.9" stop-color="#83ccf1"/><stop offset="1" stop-color="#88cdf1"/></linearGradient><linearGradient id="linear-gradient-4" x1="795.51" y1="295.45" x2="814.67" y2="295.45" xlink:href="#linear-gradient-3"/><linearGradient id="linear-gradient-5" x1="719.65" y1="264.78" x2="745.39" y2="264.78" xlink:href="#linear-gradient-3"/><linearGradient id="linear-gradient-6" x1="745.39" y1="288.94" x2="800.68" y2="288.94" xlink:href="#linear-gradient-3"/><linearGradient id="linear-gradient-7" x1="801.73" y1="316.57" x2="836.99" y2="316.57" xlink:href="#linear-gradient-3"/><linearGradient id="linear-gradient-8" x1="723.71" y1="284.43" x2="758.97" y2="284.43" xlink:href="#linear-gradient-3"/><linearGradient id="linear-gradient-9" x1="758.89" y1="311.64" x2="814.18" y2="311.64" xlink:href="#linear-gradient-3"/><linearGradient id="linear-gradient-10" x1="814.18" y1="333.34" x2="833.34" y2="333.34" xlink:href="#linear-gradient-2"/><linearGradient id="linear-gradient-11" x1="833.34" y1="349.63" x2="868.59" y2="349.63" xlink:href="#linear-gradient-3"/><linearGradient id="linear-gradient-12" x1="723.71" y1="296.38" x2="749.45" y2="296.38" xlink:href="#linear-gradient-3"/><linearGradient id="linear-gradient-13" x1="750.77" y1="315.41" x2="786.02" y2="315.41" xlink:href="#linear-gradient-3"/><linearGradient id="linear-gradient-14" x1="787.55" y1="331.09" x2="806.7" y2="331.09" xlink:href="#linear-gradient-3"/><linearGradient id="linear-gradient-15" x1="723.71" y1="308.95" x2="742.87" y2="308.95" xlink:href="#linear-gradient-3"/><linearGradient id="linear-gradient-16" x1="744.77" y1="328.51" x2="792.02" y2="328.51" xlink:href="#linear-gradient-2"/><linearGradient id="linear-gradient-17" x1="793.83" y1="350.45" x2="819.57" y2="350.45" xlink:href="#linear-gradient-3"/><linearGradient id="linear-gradient-18" x1="719.65" y1="323.19" x2="745.39" y2="323.19" xlink:href="#linear-gradient-2"/><linearGradient id="linear-gradient-19" x1="745.39" y1="347.34" x2="800.68" y2="347.34" xlink:href="#linear-gradient-3"/><linearGradient id="linear-gradient-20" x1="801.73" y1="374.97" x2="836.99" y2="374.97" xlink:href="#linear-gradient-2"/><linearGradient id="linear-gradient-21" x1="710.85" y1="333.34" x2="736.58" y2="333.34" xlink:href="#linear-gradient-3"/><linearGradient id="linear-gradient-22" x1="375.44" y1="23.21" x2="386.53" y2="23.21" gradientUnits="userSpaceOnUse"><stop offset="0" stop-color="#ec5153"/><stop offset="0.44" stop-color="#eb6864"/><stop offset="1" stop-color="#ec5455"/></linearGradient><linearGradient id="linear-gradient-23" x1="390.61" y1="31.34" x2="401.7" y2="31.34" xlink:href="#linear-gradient-2"/><linearGradient id="linear-gradient-24" x1="405.78" y1="39.47" x2="416.87" y2="39.47" gradientUnits="userSpaceOnUse"><stop offset="0" stop-color="#9fcd56"/><stop offset="1" stop-color="#86c775"/></linearGradient><linearGradient id="linear-gradient-25" x1="327.77" y1="604.37" x2="437.33" y2="604.37" gradientUnits="userSpaceOnUse"><stop offset="0" stop-color="#f0f4fa"/><stop offset="1" stop-color="#d4dded"/></linearGradient><linearGradient id="linear-gradient-26" x1="400.29" y1="551.64" x2="505.81" y2="446.11" gradientUnits="userSpaceOnUse"><stop offset="0" stop-color="#5cadd2"/><stop offset="0.31" stop-color="#96d0ef"/><stop offset="0.39" stop-color="#a5d9f6"/><stop offset="1" stop-color="#a5d9f6"/></linearGradient><linearGradient id="linear-gradient-27" x1="420.2" y1="499.06" x2="468.76" y2="499.06" gradientUnits="userSpaceOnUse"><stop offset="0.01" stop-color="#f0f4fa"/><stop offset="0.23" stop-color="#f0f4fa"/><stop offset="0.66" stop-color="#eff3fa"/><stop offset="1" stop-color="#d4dded"/></linearGradient><linearGradient id="linear-gradient-28" x1="466.1" y1="504.44" x2="469.34" y2="504.44" xlink:href="#linear-gradient-27"/><linearGradient id="linear-gradient-29" x1="476.02" y1="524.16" x2="503.33" y2="524.16" xlink:href="#linear-gradient-27"/><linearGradient id="linear-gradient-30" x1="352.6" y1="513.76" x2="482.63" y2="513.76" xlink:href="#linear-gradient-2"/><linearGradient id="linear-gradient-31" x1="337.56" y1="589.78" x2="386.22" y2="589.78" xlink:href="#linear-gradient-25"/><linearGradient id="linear-gradient-32" x1="313.02" y1="559.15" x2="403.42" y2="559.15" xlink:href="#linear-gradient-25"/><linearGradient id="linear-gradient-33" x1="426.46" y1="466.66" x2="508.5" y2="466.66" xlink:href="#linear-gradient-27"/><linearGradient id="linear-gradient-34" x1="462.12" y1="494.25" x2="479.38" y2="476.99" xlink:href="#linear-gradient-27"/><linearGradient id="linear-gradient-35" x1="522.93" y1="464.48" x2="585.76" y2="464.48" gradientUnits="userSpaceOnUse"><stop offset="0" stop-color="#5196d1"/><stop offset="0.39" stop-color="#69b5e5"/><stop offset="1" stop-color="#69b5e5" stop-opacity="0.4"/></linearGradient><linearGradient id="linear-gradient-36" x1="432.87" y1="433.83" x2="515.17" y2="433.83" xlink:href="#linear-gradient-27"/><linearGradient id="linear-gradient-37" x1="388.3" y1="358.87" x2="440.15" y2="358.87" xlink:href="#linear-gradient-35"/><linearGradient id="linear-gradient-38" x1="534.85" y1="508.94" x2="542.77" y2="501.01" xlink:href="#linear-gradient-27"/><linearGradient id="linear-gradient-39" x1="428.55" y1="355.39" x2="455.44" y2="355.39" xlink:href="#linear-gradient-27"/><linearGradient id="linear-gradient-40" x1="436.61" y1="625.18" x2="469.34" y2="625.18" xlink:href="#linear-gradient-25"/><linearGradient id="linear-gradient-41" x1="417.88" y1="622.02" x2="429.13" y2="622.02" xlink:href="#linear-gradient-25"/><linearGradient id="linear-gradient-42" x1="435.1" y1="623.17" x2="444.21" y2="623.17" xlink:href="#linear-gradient-25"/><linearGradient id="linear-gradient-43" x1="418.18" y1="629.84" x2="450.91" y2="629.84" xlink:href="#linear-gradient-25"/><linearGradient id="linear-gradient-44" x1="418.18" y1="634.36" x2="450.91" y2="634.36" xlink:href="#linear-gradient-25"/><linearGradient id="linear-gradient-45" x1="436.3" y1="624.03" x2="447.55" y2="624.03" xlink:href="#linear-gradient-25"/><linearGradient id="linear-gradient-46" x1="453.53" y1="625.18" x2="462.64" y2="625.18" xlink:href="#linear-gradient-25"/><linearGradient id="linear-gradient-47" x1="436.61" y1="631.85" x2="469.34" y2="631.85" xlink:href="#linear-gradient-25"/><linearGradient id="linear-gradient-48" x1="436.61" y1="636.37" x2="469.34" y2="636.37" xlink:href="#linear-gradient-25"/><linearGradient id="linear-gradient-49" x1="635.02" y1="362.76" x2="719.77" y2="362.76" xlink:href="#linear-gradient-35"/><linearGradient id="linear-gradient-50" x1="649.57" y1="358.6" x2="691.95" y2="358.6" gradientUnits="userSpaceOnUse"><stop offset="0.27" stop-color="#f0f4fa"/><stop offset="0.66" stop-color="#eff3fa"/><stop offset="1" stop-color="#d4dded"/></linearGradient><linearGradient id="linear-gradient-51" x1="708.76" y1="781.06" x2="719.41" y2="781.06" gradientTransform="matrix(-0.5, 0.87, -0.87, -0.5, 1723.84, 142)" xlink:href="#linear-gradient-50"/></defs><title>Classroom</title><g id="Layer_3" data-name="Layer 3"><path class="cls-1" d="M676.29,177.33V309.08a14.46,14.46,0,0,0,7.23,12.52L903.38,448.54A14.46,14.46,0,0,0,925.07,436l-.56-130.4a14.46,14.46,0,0,0-7.16-12.42L698,164.85A14.46,14.46,0,0,0,676.29,177.33Z" transform="translate(-307.4 -162.85)"/><path class="cls-2" d="M915.71,332.53l-248.14-145,0,126.26a14.46,14.46,0,0,0,7.16,12.56L894,454.43A14.46,14.46,0,0,0,915.74,442Z" transform="translate(-307.4 -162.85)"/><path class="cls-3" d="M915.73,309.76a14.46,14.46,0,0,0-7-10.65L690.12,169.69c-9.4-5.56-21.91,1.3-22.52,12l0,5.51v.3l248.14,145Z" transform="translate(-307.4 -162.85)"/><g class="cls-4"><path class="cls-5" d="M794.15,280l-21.88-12.63-.12-.09-25-14.41a4.16,4.16,0,0,0-4.16,7.21l21.88,12.63.12.09,25,14.41a4.16,4.16,0,0,0,4.16-7.21Z" transform="translate(-307.4 -162.85)"/><path class="cls-5" d="M738.21,246.69l-17.73-10.24a4.15,4.15,0,0,0-3.84,7.35L734.33,254h0a4.16,4.16,0,0,0,3.88-7.35Z" transform="translate(-307.4 -162.85)"/><path class="cls-5" d="M812.22,301.08l.2.12a4.15,4.15,0,0,0,4.38-7l-11.65-6.73a4.15,4.15,0,0,0-4.34,7l11.65,6.73Z" transform="translate(-307.4 -162.85)"/><path class="cls-5" d="M747,265.1l-17.73-10.24a4.15,4.15,0,0,0-3.84,7.35l17.7,10.24h0A4.16,4.16,0,0,0,747,265.1Z" transform="translate(-307.4 -162.85)"/><path class="cls-5" d="M802.3,297.78l-21.88-12.63-.12-.09-25-14.41a4.16,4.16,0,0,0-4.16,7.21l21.88,12.63.12.09,25,14.41a4.16,4.16,0,0,0,4.16-7.21Z" transform="translate(-307.4 -162.85)"/><path class="cls-5" d="M834.46,326.82a4.16,4.16,0,0,0,4.45-7l-27.23-15.74a4.16,4.16,0,0,0-4.45,7Z" transform="translate(-307.4 -162.85)"/><path class="cls-5" d="M756.44,294.69a4.16,4.16,0,0,0,4.45-7l-27.23-15.74a4.16,4.16,0,0,0-4.45,7Z" transform="translate(-307.4 -162.85)"/><path class="cls-5" d="M815.81,320.48l-21.88-12.63-.12-.09-25-14.41a4.16,4.16,0,0,0-4.16,7.21l21.88,12.63.12.09,25,14.41a4.16,4.16,0,0,0,4.16-7.21Z" transform="translate(-307.4 -162.85)"/><path class="cls-5" d="M830.88,339l.2.12a4.15,4.15,0,0,0,4.38-7l-11.65-6.73a4.15,4.15,0,0,0-4.34,7l11.65,6.73Z" transform="translate(-307.4 -162.85)"/><path class="cls-5" d="M866.06,359.88a4.16,4.16,0,0,0,4.45-7l-27.23-15.74a4.16,4.16,0,0,0-4.45,7Z" transform="translate(-307.4 -162.85)"/><path class="cls-5" d="M751.08,296.69l-17.73-10.24a4.15,4.15,0,0,0-3.84,7.35L747.2,304h0a4.16,4.16,0,0,0,3.88-7.35Z" transform="translate(-307.4 -162.85)"/><path class="cls-5" d="M783.49,325.66a4.16,4.16,0,0,0,4.45-7L760.72,302.9a4.16,4.16,0,0,0-4.45,7Z" transform="translate(-307.4 -162.85)"/><path class="cls-5" d="M804.25,336.71l.2.12a4.15,4.15,0,0,0,4.38-7l-11.65-6.73a4.15,4.15,0,0,0-4.34,7l11.65,6.73Z" transform="translate(-307.4 -162.85)"/><path class="cls-5" d="M740.42,314.58l.2.12a4.15,4.15,0,0,0,4.38-7L733.34,301a4.15,4.15,0,0,0-4.34,7l11.65,6.73Z" transform="translate(-307.4 -162.85)"/><path class="cls-5" d="M789.48,342.21a4.16,4.16,0,0,0,4.59-6.92l-39.36-22.75a4.16,4.16,0,0,0-4.6,6.92Z" transform="translate(-307.4 -162.85)"/><path class="cls-5" d="M821.2,350.77l-17.73-10.24a4.15,4.15,0,0,0-3.84,7.35l17.7,10.24h0a4.16,4.16,0,0,0,3.88-7.35Z" transform="translate(-307.4 -162.85)"/><path class="cls-5" d="M747,323.51l-17.73-10.24a4.15,4.15,0,0,0-3.84,7.35l17.7,10.24h0a4.16,4.16,0,0,0,3.88-7.35Z" transform="translate(-307.4 -162.85)"/><path class="cls-5" d="M802.3,356.18l-21.88-12.63-.12-.09-25-14.41a4.16,4.16,0,0,0-4.16,7.21l21.88,12.63.12.09,25,14.41a4.16,4.16,0,0,0,4.16-7.21Z" transform="translate(-307.4 -162.85)"/><path class="cls-5" d="M834.46,385.23a4.16,4.16,0,0,0,4.45-7l-27.23-15.74a4.16,4.16,0,0,0-4.45,7Z" transform="translate(-307.4 -162.85)"/><path class="cls-5" d="M738.21,333.65l-17.73-10.24a4.15,4.15,0,0,0-3.84,7.35L734.33,341h0a4.16,4.16,0,0,0,3.88-7.35Z" transform="translate(-307.4 -162.85)"/></g><path class="cls-6" d="M790.44,281.16l-21.88-12.63-.12-.09-25-14.41a4.16,4.16,0,0,0-4.16,7.21l21.88,12.63.12.09,25,14.41a4.16,4.16,0,0,0,4.16-7.21Z" transform="translate(-307.4 -162.85)"/><path class="cls-7" d="M734.5,247.82l-17.73-10.24a4.15,4.15,0,0,0-3.84,7.35l17.7,10.24h0a4.16,4.16,0,0,0,3.88-7.35Z" transform="translate(-307.4 -162.85)"/><path class="cls-8" d="M808.51,302.2l.2.12a4.15,4.15,0,0,0,4.38-7l-11.65-6.73a4.15,4.15,0,0,0-4.34,7l11.65,6.73Z" transform="translate(-307.4 -162.85)"/><path class="cls-9" d="M743.31,266.23,725.57,256a4.15,4.15,0,0,0-3.84,7.35l17.7,10.24h0a4.16,4.16,0,0,0,3.88-7.35Z" transform="translate(-307.4 -162.85)"/><path class="cls-10" d="M798.6,298.9l-21.88-12.63-.12-.09-25-14.41a4.16,4.16,0,0,0-4.16,7.21l21.88,12.63.12.09,25,14.41a4.16,4.16,0,0,0,4.16-7.21Z" transform="translate(-307.4 -162.85)"/><path class="cls-11" d="M830.75,327.94a4.16,4.16,0,0,0,4.45-7L808,305.19a4.16,4.16,0,0,0-4.45,7Z" transform="translate(-307.4 -162.85)"/><path class="cls-12" d="M752.73,295.81a4.16,4.16,0,0,0,4.45-7L730,273.06a4.16,4.16,0,0,0-4.45,7Z" transform="translate(-307.4 -162.85)"/><path class="cls-13" d="M812.1,321.61,790.22,309l-.12-.09-25-14.41a4.16,4.16,0,0,0-4.16,7.21l21.88,12.63.12.09,25,14.41a4.16,4.16,0,0,0,4.16-7.21Z" transform="translate(-307.4 -162.85)"/><path class="cls-14" d="M827.18,340.08l.2.12a4.15,4.15,0,0,0,4.38-7l-11.65-6.73a4.15,4.15,0,0,0-4.34,7l11.65,6.73Z" transform="translate(-307.4 -162.85)"/><path class="cls-15" d="M862.35,361a4.16,4.16,0,0,0,4.45-7l-27.23-15.74a4.16,4.16,0,0,0-4.45,7Z" transform="translate(-307.4 -162.85)"/><path class="cls-16" d="M747.37,297.82l-17.73-10.24a4.15,4.15,0,0,0-3.84,7.35l17.7,10.24h0a4.16,4.16,0,0,0,3.88-7.35Z" transform="translate(-307.4 -162.85)"/><path class="cls-17" d="M779.78,326.79a4.16,4.16,0,0,0,4.45-7L757,304a4.16,4.16,0,0,0-4.45,7Z" transform="translate(-307.4 -162.85)"/><path class="cls-18" d="M800.54,337.83l.2.12a4.15,4.15,0,0,0,4.38-7l-11.65-6.73a4.15,4.15,0,0,0-4.34,7l11.65,6.73Z" transform="translate(-307.4 -162.85)"/><path class="cls-19" d="M736.71,315.7l.2.12a4.15,4.15,0,0,0,4.38-7l-11.65-6.73a4.15,4.15,0,0,0-4.34,7l11.65,6.73Z" transform="translate(-307.4 -162.85)"/><path class="cls-20" d="M785.78,343.34a4.16,4.16,0,0,0,4.59-6.92L751,313.68a4.16,4.16,0,0,0-4.6,6.92Z" transform="translate(-307.4 -162.85)"/><path class="cls-21" d="M817.49,351.9l-17.73-10.24a4.15,4.15,0,0,0-3.84,7.35l17.7,10.24h0a4.16,4.16,0,0,0,3.88-7.35Z" transform="translate(-307.4 -162.85)"/><path class="cls-22" d="M743.31,324.64,725.57,314.4a4.15,4.15,0,0,0-3.84,7.35L739.43,332h0a4.16,4.16,0,0,0,3.88-7.35Z" transform="translate(-307.4 -162.85)"/><path class="cls-23" d="M798.6,357.31l-21.88-12.63-.12-.09-25-14.41a4.16,4.16,0,0,0-4.16,7.21L769.35,350l.12.09,25,14.41a4.16,4.16,0,0,0,4.16-7.21Z" transform="translate(-307.4 -162.85)"/><path class="cls-24" d="M830.75,386.35a4.16,4.16,0,0,0,4.45-7L808,363.6a4.16,4.16,0,0,0-4.45,7Z" transform="translate(-307.4 -162.85)"/><path class="cls-25" d="M734.5,334.78l-17.73-10.24a4.15,4.15,0,0,0-3.84,7.35l17.7,10.24h0a4.16,4.16,0,0,0,3.88-7.35Z" transform="translate(-307.4 -162.85)"/><ellipse class="cls-26" cx="383.91" cy="23.21" rx="5.54" ry="8.13"/><ellipse class="cls-26" cx="399.08" cy="31.34" rx="5.54" ry="8.13"/><ellipse class="cls-26" cx="414.25" cy="39.47" rx="5.54" ry="8.13"/><ellipse class="cls-27" cx="380.99" cy="23.21" rx="5.54" ry="8.13"/><ellipse class="cls-28" cx="396.15" cy="31.34" rx="5.54" ry="8.13"/><ellipse class="cls-29" cx="411.32" cy="39.47" rx="5.54" ry="8.13"/><path class="cls-30" d="M612.62,256.2s9.44,23.12,0,25.4c0,0-2.3,1.31-6.22,0,0,0-1.72,5.24,1.23,7.43l-14.72-2s4.42-.65,2.21-5.46l-1-19.23Z" transform="translate(-307.4 -162.85)"/><rect class="cls-30" x="558.67" y="389.66" width="9.73" height="15.89" rx="4.78" ry="4.78" transform="translate(-356.41 -82.19) rotate(-7.85)"/><path class="cls-31" d="M605.48,244.82a5.38,5.38,0,0,0-4.87-1.11,10.26,10.26,0,0,0-4.76,3.1s-2.65-.66-4.09.77a4.84,4.84,0,0,0-1.55,2.65,3.72,3.72,0,0,0-3,2.54c-.77,2.32-2.43,4.76-.66,12.83,0,0,.88,1.88,1.55,3.43s-.33,5.2.55,6.08,2.54-3.21,3.1-.77-2.54,6-.44,6.64,10.73.62,10.73.62,2.65.15,2.43-6.71c0,0-4-2.76-2.54-7s4.2-.66,4.2-.66-.11-6.09,2.1-7.64,3.64-3.53,5-2.93a50.73,50.73,0,0,0,3.17-5.15,3.77,3.77,0,0,0-2-4.09C611.78,245.92,611.45,243.38,605.48,244.82Z" transform="translate(-307.4 -162.85)"/><path class="cls-32" d="M572.55,293.92s-17.31,21.2-17.64,74.6c0,0-2.31,29.18,4.29,29.09l8.36,1.33,5-18.56Z" transform="translate(-307.4 -162.85)"/><path class="cls-33" d="M646.53,498c-3.58-6-14.24-1.89-14.24-1.89l-.19,12.1H614.72s-3.9,2.52-4.22,9.17a16.78,16.78,0,0,0,.49,5.18s4.72,5.05,10.14,4.2c4.54-.71,14.08-3.42,24.85-11.14C646.24,514.88,650,503.87,646.53,498Z" transform="translate(-307.4 -162.85)"/><path class="cls-34" d="M646.41,515.35c-10.95,8-20.69,10.73-25.29,11.45-5.42.85-10.12-4.17-10.14-4.2,1.25,4.54,5.05,7.73,14.25,4.79,8.38-2.68,19.91-7.16,25.54-14.34a17.65,17.65,0,0,0,1.62-2.42l.08-.12c0-.07.06-.14.09-.21Zm0,0c.72-.52,1.44-1.08,2.17-1.64C647.85,514.28,647.13,514.82,646.41,515.35Z" transform="translate(-307.4 -162.85)"/><path class="cls-34" d="M645.95,515.73l.46-.38-.44.3Z" transform="translate(-307.4 -162.85)"/><path class="cls-35" d="M653.74,500.47c-3.52-15-21.45-4.31-21.45-4.31S642.95,492,646.53,498c3.45,5.82-.28,16.84-.55,17.61l.44-.3,6.15-5A13.86,13.86,0,0,0,653.74,500.47Z" transform="translate(-307.4 -162.85)"/><path class="cls-30" d="M614.72,511v-4.55L632,507s2.56,3.14-2.79,5.62c-4.85,2.24-9.56,1.24-13.23,0A1.73,1.73,0,0,1,614.72,511Z" transform="translate(-307.4 -162.85)"/><path class="cls-33" d="M603.87,485.26c-3.58-6-12.33-1.9-12.33-1.9l-2.11,12.11H572.06s-3.9,2.52-4.22,9.17a16.78,16.78,0,0,0,.49,5.18s4.72,5.05,10.14,4.2c4.54-.71,14.08-3.42,24.85-11.14C603.59,502.09,607.32,491.07,603.87,485.26Z" transform="translate(-307.4 -162.85)"/><path class="cls-34" d="M603.76,502.56c-10.95,8-20.69,10.73-25.29,11.45-5.42.85-10.12-4.17-10.14-4.2,1.25,4.54,5.05,7.73,14.25,4.79,8.38-2.68,19.91-7.16,25.54-14.34a17.65,17.65,0,0,0,1.62-2.42l.08-.12c0-.07.06-.14.09-.21Zm0,0c.72-.52,1.44-1.08,2.17-1.64C605.2,501.48,604.48,502,603.76,502.56Z" transform="translate(-307.4 -162.85)"/><path class="cls-34" d="M603.29,502.94l.46-.38-.44.3Z" transform="translate(-307.4 -162.85)"/><path class="cls-35" d="M611.08,487.68c-3.52-15-19.54-4.32-19.54-4.32s8.75-4.13,12.33,1.9c3.45,5.82-.28,16.84-.55,17.61l.44-.3,6.15-5A13.86,13.86,0,0,0,611.08,487.68Z" transform="translate(-307.4 -162.85)"/><path class="cls-30" d="M572.06,498.22v-4.55l17.37,1.8s2.49,1.86-2.87,4.33c-4.85,2.24-9.44.94-13.23,0A1.66,1.66,0,0,1,572.06,498.22Z" transform="translate(-307.4 -162.85)"/><path class="cls-36" d="M566.07,386l6.22,54.34-1,52.18a5.22,5.22,0,0,0,4.76,5.3l8.78.78a4.63,4.63,0,0,0,5-3.79c1.89-10.62,6.74-38.76,7.22-51.55.56-14.91,5.92-31.32,5.92-31.32s5.3,24.73,6.18,48.18c.67,18,3.67,38.47,5,47a4.86,4.86,0,0,0,4.83,4.1h8.38a4.84,4.84,0,0,0,4.85-4.82c.11-21.18.39-105.45-2.16-117.27Z" transform="translate(-307.4 -162.85)"/><rect class="cls-30" x="666.43" y="271.8" width="9.73" height="15.89" rx="2.78" ry="2.78" transform="translate(-339.31 -68.58) rotate(-7.85)"/><path class="cls-32" d="M614.86,293.92s27.57,18.36,36.49,16.49,17.12-14.39,13-28.8l13.78-4s3.34,36.87-10.82,46.19-23,8-33,4.67c-12.64-4.21-.3,58.17-.3,58.17s-36.84,26.91-71.48-3.63c0,0,4.41-40.38,3.4-65.18-.76-18.71,7.48-26.88,14.19-29a30,30,0,0,1,11.31-1.11l17.22,1.3Z" transform="translate(-307.4 -162.85)"/><path class="cls-37" d="M594.67,286.18a98.4,98.4,0,0,0,13.41,2.35l6.78,5.38-7-3.2s-11.72.43-16.41-3Z" transform="translate(-307.4 -162.85)"/><rect class="cls-30" x="359.24" y="104.34" width="3.09" height="9.59" rx="1.55" ry="1.55"/><path class="cls-38" d="M420,622.08V617.4l17.37,1.53s3,2.22-2.47,4.76c-5,2.3-9.69,1-13.59,0A1.7,1.7,0,0,1,420,622.08Z" transform="translate(-307.4 -162.85)"/><path class="cls-34" d="M437.33,618.93A70.8,70.8,0,0,1,420,618V603.83l17.37-31.15,5.81-3.9Z" transform="translate(-307.4 -162.85)"/><path class="cls-36" d="M483.41,557.84v96.53c0,.93,1.73,1.7,4,1.91.4,0,.81.06,1.25.06s.84,0,1.25-.06c2.32-.21,4-1,4-1.91V557.84Z" transform="translate(-307.4 -162.85)"/><path class="cls-36" d="M335.51,472.25v96.53c0,.93,1.73,1.7,4,1.91.4,0,.81.06,1.25.06s.84,0,1.25-.06c2.32-.21,4-1,4-1.91V472.25Z" transform="translate(-307.4 -162.85)"/><path class="cls-36" d="M488.7,472.25v96.53c0,.93,1.73,1.7,4,1.91.4,0,.81.06,1.25.06s.84,0,1.25-.06c2.32-.21,4-1,4-1.91V472.25Z" transform="translate(-307.4 -162.85)"/><path class="cls-36" d="M562.53,529.1l-.19,70.71c0,.93,1.73,1.7,4,1.91.4,0,.81.06,1.25.06s.84,0,1.25-.06c2.32-.21,4-1,4-1.91V530Z" transform="translate(-307.4 -162.85)"/><polygon class="cls-39" points="202.37 315.42 202.37 328.75 110 382.08 110 368.75 202.37 315.42"/><path class="cls-40" d="M577.84,519.48v12a2.35,2.35,0,0,1-1.15,2l-88,52.64V571.52Z" transform="translate(-307.4 -162.85)"/><path class="cls-41" d="M385.65,571l48.57,28a6.21,6.21,0,0,1,0,10.76l-48.57,28a6.21,6.21,0,0,1-6.21,0l-48.57-28a6.21,6.21,0,0,1,0-10.76l48.57-28A6.21,6.21,0,0,1,385.65,571Z" transform="translate(-307.4 -162.85)"/><path class="cls-32" d="M385.65,559.38l48.57,28a6.21,6.21,0,0,1,0,10.76l-48.57,28a6.21,6.21,0,0,1-6.21,0l-48.57-28a6.21,6.21,0,0,1,0-10.76l48.57-28A6.21,6.21,0,0,1,385.65,559.38Z" transform="translate(-307.4 -162.85)"/><path class="cls-30" d="M437.33,624v-5l18.49,2.46,1,1.61c.06,1-.58,2.42-3.37,2.87-3.09.51-5.75,2-8.27,2-2.25,0-4.45-1.68-6.43-2.15A1.84,1.84,0,0,1,437.33,624Z" transform="translate(-307.4 -162.85)"/><path class="cls-33" d="M412.84,550.26s33.22-15.53,40.91-7.11,15.25,27.39,2.07,78.28c0,0-13,1.16-18.49-2.5l5.81-50.16s-10.92,29.43-50.89,35.59l-24.16-55Z" transform="translate(-307.4 -162.85)"/><path class="cls-42" d="M417.4,531.65v0l-89.13-53.34v11a7.33,7.33,0,0,0,3.67,6.35l64.4,37.18v0l92.37,53.33V571.52Z" transform="translate(-307.4 -162.85)"/><path class="cls-43" d="M509.73,478.29l0,0L419,425.87a3.23,3.23,0,0,0-3.23,0l-85.9,49.59a3.23,3.23,0,0,0,0,5.6l66.5,38.39,0,0,90.75,52.4a3.23,3.23,0,0,0,3.23,0l85.9-49.59a3.23,3.23,0,0,0,0-5.6Z" transform="translate(-307.4 -162.85)"/><polygon class="cls-44" points="158.57 343.52 154.39 341.12 157.2 339.82 158.57 343.52"/><path class="cls-45" d="M469.7,502.69l0,0-.5-.29a2.31,2.31,0,0,0-1.49.1,3.86,3.86,0,0,0-1.85,1.5,2.44,2.44,0,0,0-.43,1.34c0,1.09,1.09,1.58,2.38,1.1a3.4,3.4,0,0,0,2.28-2.84A1.27,1.27,0,0,0,469.7,502.69Z" transform="translate(-307.4 -162.85)"/><path class="cls-45" d="M467.67,503.5a2.31,2.31,0,0,1,1.49-.1L439,486.06a3.56,3.56,0,0,0-3.56,0l-14.79,8.54a.78.78,0,0,0,0,1.35l31.76,18.38a2.41,2.41,0,0,0,2.77-.25L465.82,505A3.86,3.86,0,0,1,467.67,503.5Z" transform="translate(-307.4 -162.85)"/><path class="cls-46" d="M467.67,502.46a2.68,2.68,0,0,1,1-.18.1.1,0,0,0,.05-.18l-30.81-17.71a3,3,0,0,0-3.11.07l-14.21,9.08a.8.8,0,0,0,0,1.37l33.19,19.22a.1.1,0,0,0,.11,0L465.81,504l0,0A3.87,3.87,0,0,1,467.67,502.46Z" transform="translate(-307.4 -162.85)"/><path class="cls-47" d="M469.1,503.22l0,0a.92.92,0,0,0-.18-.13l-.16-.07a1.48,1.48,0,0,0-.48-.05,2,2,0,0,0-.56.13,2.69,2.69,0,0,0-1.29,1,1.7,1.7,0,0,0-.3.93c0,.76.76,1.1,1.66.77a2.36,2.36,0,0,0,1.59-2A.88.88,0,0,0,469.1,503.22Z" transform="translate(-307.4 -162.85)"/><path class="cls-45" d="M484.3,532.12s14.63-6,19-10.28C503.33,521.84,494,517.71,484.3,532.12Z" transform="translate(-307.4 -162.85)"/><path class="cls-48" d="M494.24,516.2l9.09,5.64s-8.88-2.54-19,10.28L476,527.8S483.82,516.25,494.24,516.2Z" transform="translate(-307.4 -162.85)"/><path class="cls-30" d="M466.31,516.11a61,61,0,0,0,16.22-2.23c7.39-2.32,12.17,1,9.83,7.27-2.06,5.52-24,4.93-24,4.93Z" transform="translate(-307.4 -162.85)"/><path class="cls-49" d="M481.52,512.41l-28.47,4.35c-7.55.68-10.4-4.18-14.92-10.27-7.91-10.66-17.32-25.66-17.33-25.66-5.54-7-14.58-8.8-14.58-8.8l-20.67-2.76s-14.6-5-17.73,6.52,2.95,34.56-5.94,43.54-9.29,30.92-9.29,30.92c45,20.38,60.24,0,60.24,0-3.19-8.12-.46-27.48-.46-27.48a10.74,10.74,0,0,0,6.3-12.28l8.54,13.93a17.12,17.12,0,0,0,1.95,2.64,23.53,23.53,0,0,0,14,7.3c20,2.28,39.5-7.64,39.5-7.64Z" transform="translate(-307.4 -162.85)"/><path class="cls-30" d="M408.06,434s10.76,26.37,0,29c0,0-2.62,1.5-7.1,0,0,0-2,6,1.4,8.47l-16.79-2.24s5-.75,2.52-6.23L387,441Z" transform="translate(-307.4 -162.85)"/><path class="cls-31" d="M399.92,421a6.14,6.14,0,0,0-5.55-1.26,11.7,11.7,0,0,0-5.42,3.53s-3-.76-4.67.88a5.52,5.52,0,0,0-1.77,3,4.25,4.25,0,0,0-3.41,2.9c-.88,2.65-2.78,5.42-.76,14.63,0,0,1,2.14,1.77,3.91s-.38,5.93.63,6.94,2.9-3.66,3.53-.88-2.9,6.81-.5,7.57,12.24.71,12.24.71,3,.17,2.78-7.65c0,0-4.54-3.15-2.9-7.95s4.79-.75,4.79-.75-.13-6.95,2.4-8.71,4.16-4,5.72-3.34a57.86,57.86,0,0,0,3.61-5.87,4.3,4.3,0,0,0-2.27-4.67C407.11,422.25,406.73,419.35,399.92,421Z" transform="translate(-307.4 -162.85)"/><path class="cls-30" d="M385.57,469.18s-.57,4.27,6.52,5.11c9.22,1.1,10.27-2.87,10.27-2.87Z" transform="translate(-307.4 -162.85)"/><path class="cls-50" d="M378.15,582.61l-13.37-7-.08,0-17.55-9.18c-5.19-2.71-10.45.68-9.47,6.1L341,590.85a8.87,8.87,0,0,0,4.63,6.1l13.37,7,.08,0,17.55,9.18c5.19,2.71,10.45-.68,9.47-6.1l-3.32-18.35A8.87,8.87,0,0,0,378.15,582.61Z" transform="translate(-307.4 -162.85)"/><path class="cls-51" d="M388.44,545.82l-24.84-13-.15-.09L330.83,515.7c-9.64-5-19.41,1.26-17.59,11.34l6.17,34.1a16.48,16.48,0,0,0,8.6,11.34l24.84,13,.15.09,32.62,17.05c9.64,5,19.41-1.26,17.59-11.34L397,557.16A16.48,16.48,0,0,0,388.44,545.82Z" transform="translate(-307.4 -162.85)"/><path class="cls-32" d="M382.82,548.66l-24.84-13-.15-.09-32.62-17.05c-9.64-5-19.41,1.26-17.59,11.34l6.17,34.1a16.48,16.48,0,0,0,8.6,11.34l24.84,13,.15.09L380,605.44c9.64,5,19.41-1.26,17.59-11.34L391.42,560A16.48,16.48,0,0,0,382.82,548.66Z" transform="translate(-307.4 -162.85)"/><path class="cls-52" d="M685.77,315.44h0a3.42,3.42,0,0,1-2-2.85V216.88c0-1.1.9-1.62,2-1.15h0a3.42,3.42,0,0,1,2,2.85v95.71C687.77,315.39,686.87,315.91,685.77,315.44Z" transform="translate(-307.4 -162.85)"/></g><g id="Layer_4" data-name="Layer 4"><path class="cls-1" d="M519.46,423.81l-68.19-40.25a6,6,0,0,0-4.88-.6h0L443.16,384l1,.22a6,6,0,0,0-1.83,3.16L430.89,439.1l-1.22,4.75a6.75,6.75,0,0,0,3.21,7.56l69,40a6.36,6.36,0,0,0,3.21.86l-.45.49,2.15-.71h0a6.39,6.39,0,0,0,4.59-4.82l.13-.6,11.3-55.27A7.06,7.06,0,0,0,519.46,423.81Z" transform="translate(-307.4 -162.85)"/><path class="cls-53" d="M439.29,388.42,427.9,440.1l80.6,47.47,11.3-55.27a7.06,7.06,0,0,0-3.33-7.49l-68.19-40.25A6,6,0,0,0,439.29,388.42Z" transform="translate(-307.4 -162.85)"/><path class="cls-54" d="M427.9,440.1l80.6,47.47-.13.6a6.42,6.42,0,0,1-9.49,4.19l-69-40a6.75,6.75,0,0,1-3.21-7.56Z" transform="translate(-307.4 -162.85)"/><path class="cls-1" d="M468.35,476.07l-14.79,8.74a1.24,1.24,0,0,0,0,2.14l16.4,9.84a3.82,3.82,0,0,0,3.88,0L489.06,488l1.09-.68-1.09-.64-20.59-10.61A.12.12,0,0,0,468.35,476.07Z" transform="translate(-307.4 -162.85)"/><path class="cls-55" d="M468.35,474.75l-14.79,8.74a1.24,1.24,0,0,0,0,2.14l16.4,9.84a3.82,3.82,0,0,0,3.88,0l15.23-8.82-20.59-11.93A.12.12,0,0,0,468.35,474.75Z" transform="translate(-307.4 -162.85)"/><path class="cls-53" d="M464.12,468.8h0a2.07,2.07,0,0,1-1.26-2.58h0a2,2,0,0,1,2.28-1.69h0a2.07,2.07,0,0,1,1.26,2.58h0A2,2,0,0,1,464.12,468.8Z" transform="translate(-307.4 -162.85)"/><path class="cls-56" d="M583.43,455.31,537.6,428.26a4,4,0,0,0-6,2.59l-7.65,34.73-.82,3.19a4.53,4.53,0,0,0,2.16,5.08L571.6,500.7a4.32,4.32,0,0,0,6.38-2.82l.09-.4,7.59-37.14A4.74,4.74,0,0,0,583.43,455.31Z" transform="translate(-307.4 -162.85)"/><path class="cls-57" d="M512.6,427.59l-13-7.66-.1-.07L449,390.05a4.46,4.46,0,0,0-6.66,2.86l-8.43,38.27L433,434.7a5,5,0,0,0,2.38,5.6l12.15,7a5,5,0,0,0,.92.69l51.09,29.59a4.76,4.76,0,0,0,7-3.1l.1-.44,8.37-40.93A5.23,5.23,0,0,0,512.6,427.59Z" transform="translate(-307.4 -162.85)"/><path class="cls-58" d="M438.23,351.3,400.41,329a3.34,3.34,0,0,0-5,2.14l-6.32,28.67-.68,2.63a3.74,3.74,0,0,0,1.78,4.19l38.26,22.16a3.56,3.56,0,0,0,5.27-2.32l.07-.33,6.27-30.65A3.91,3.91,0,0,0,438.23,351.3Z" transform="translate(-307.4 -162.85)"/><path class="cls-1" d="M546.74,507.66h0v-2.14l-2.76-.18-4.5-2.61a3.37,3.37,0,0,0-3.41,0l-3.17,1.88-1.89-.12v2h0a1.52,1.52,0,0,0,.74,1.4l6.31,3.78a2.82,2.82,0,0,0,2.86,0l5.2-3a1.22,1.22,0,0,0,.6-.93h0Z" transform="translate(-307.4 -162.85)"/><path class="cls-59" d="M536.07,500.59l-4.3,2.54a1.54,1.54,0,0,0,0,2.65l6.31,3.78a2.82,2.82,0,0,0,2.86,0l5.2-3a1.24,1.24,0,0,0,0-2.15l-6.64-3.85A3.37,3.37,0,0,0,536.07,500.59Z" transform="translate(-307.4 -162.85)"/><path class="cls-60" d="M454.44,351.46l-19.61-11.58a1.73,1.73,0,0,0-2.59,1.11L429,355.86l-.35,1.37a1.94,1.94,0,0,0,.92,2.17l19.84,11.49a1.85,1.85,0,0,0,2.73-1.21l0-.17,3.25-15.9A2,2,0,0,0,454.44,351.46Z" transform="translate(-307.4 -162.85)"/><path class="cls-61" d="M507.58,515.92l1,16.36c0,2.29,3.35,4.15,7.47,4.15s7.47-1.86,7.47-4.15l.85-16.26A13.86,13.86,0,0,1,516,518.4,13.72,13.72,0,0,1,507.58,515.92Z" transform="translate(-307.4 -162.85)"/><path class="cls-62" d="M516,509.55c-4.68,0-8.48,2.11-8.48,4.7l.1,1.66A13.72,13.72,0,0,0,516,518.4a13.86,13.86,0,0,0,8.32-2.39l.09-1.75C524.43,511.66,520.63,509.55,516,509.55Z" transform="translate(-307.4 -162.85)"/><path class="cls-63" d="M525.07,509.18c-1.69-1.82-5.11-3.06-9.05-3.06s-7.36,1.24-9.05,3.06h-1.14v2.59c0,3.12,4.56,5.65,10.19,5.65s10.19-2.53,10.19-5.65v-2.59Z" transform="translate(-307.4 -162.85)"/><ellipse class="cls-64" cx="208.61" cy="346.33" rx="10.19" ry="5.65"/><path class="cls-65" d="M516,523c-3.9,0-7.17-1.46-8.16-3.45h-.31l.28,5.79c0,2.6,3.52,4.45,8.2,4.45s8.21-1.85,8.21-4.44l.26-5.79h-.31C523.12,521.53,519.85,523,516,523Z" transform="translate(-307.4 -162.85)"/><path class="cls-66" d="M516,504.9c4.82,0,8.75,2,9,4.56a2.63,2.63,0,0,0,0-.3c0-2.68-4.06-4.85-9.07-4.85s-9.07,2.17-9.07,4.85a2.63,2.63,0,0,0,0,.3C507.23,506.92,511.16,504.9,516,504.9Z" transform="translate(-307.4 -162.85)"/><path class="cls-67" d="M516,514c4.82,0,8.75-2,9-4.56-.29-2.54-4.22-4.56-9-4.56s-8.75,2-9,4.56C507.23,512,511.16,514,516,514Z" transform="translate(-307.4 -162.85)"/><path class="cls-68" d="M462.64,626c-3.56.25-5.83-2.91-5.83-2.91a8.11,8.11,0,0,1-3.27,2.45S456.22,629.26,462.64,626Z" transform="translate(-307.4 -162.85)"/><path class="cls-69" d="M418.13,619.91a1.6,1.6,0,0,1,1.57-1.17,3.64,3.64,0,0,1,3.33,2.19c1.51,3,4.12,3.22,6.1,4.38l-10.65-.45A7.77,7.77,0,0,1,418.13,619.91Z" transform="translate(-307.4 -162.85)"/><path class="cls-70" d="M444.21,623.95c-3.56.25-5.83-2.91-5.83-2.91a8.11,8.11,0,0,1-3.27,2.45S437.8,627.26,444.21,623.95Z" transform="translate(-307.4 -162.85)"/><path class="cls-71" d="M434.55,636.1c11-.72,13.27-2.6,16.07-4.52l-.1.25a7.31,7.31,0,0,0,.09-4.45c-.63-3.29-2.83-3.68-6.4-3.42-6.41,3.31-9.09-.44-9.11-.46a24.46,24.46,0,0,1-9,1.63l-7.68-.48a32.49,32.49,0,0,0,0,7.9,5.54,5.54,0,0,0,.22,1S423.51,636.82,434.55,636.1Z" transform="translate(-307.4 -162.85)"/><path class="cls-72" d="M437.48,636.62c8.81-.82,12-2.6,13-4.8l.1-.25c-2.8,1.92-5.07,3.8-16.07,4.52s-15.9-2.55-15.91-2.55C419.75,637,424.49,637.82,437.48,636.62Z" transform="translate(-307.4 -162.85)"/><path class="cls-1" d="M437.48,636.62c8.81-.82,12-2.6,13-4.8l.1-.25c-2.8,1.92-5.07,3.8-16.07,4.52s-15.9-2.55-15.91-2.55C419.75,637,424.49,637.82,437.48,636.62Z" transform="translate(-307.4 -162.85)"/><path class="cls-73" d="M436.55,621.92a1.6,1.6,0,0,1,1.57-1.17,3.64,3.64,0,0,1,3.33,2.19c1.51,3,4.12,3.22,6.1,4.38l-10.65-.45A7.77,7.77,0,0,1,436.55,621.92Z" transform="translate(-307.4 -162.85)"/><path class="cls-74" d="M462.64,626c-3.56.25-5.83-2.91-5.83-2.91a8.11,8.11,0,0,1-3.27,2.45S456.22,629.26,462.64,626Z" transform="translate(-307.4 -162.85)"/><path class="cls-75" d="M453,638.1c11-.72,13.27-2.6,16.07-4.52l-.1.25a7.31,7.31,0,0,0,.09-4.45c-.63-3.29-2.83-3.68-6.4-3.42-6.41,3.31-9.09-.44-9.11-.46a24.46,24.46,0,0,1-9,1.63l-7.68-.48a32.49,32.49,0,0,0,0,7.9,5.54,5.54,0,0,0,.22,1S441.93,638.83,453,638.1Z" transform="translate(-307.4 -162.85)"/><path class="cls-76" d="M455.91,638.62c8.81-.82,12-2.6,13-4.8l.1-.25c-2.8,1.92-5.07,3.8-16.07,4.52s-15.9-2.55-15.91-2.55C438.18,639,442.91,639.83,455.91,638.62Z" transform="translate(-307.4 -162.85)"/><path class="cls-1" d="M455.91,638.62c8.81-.82,12-2.6,13-4.8l.1-.25c-2.8,1.92-5.07,3.8-16.07,4.52s-15.9-2.55-15.91-2.55C438.18,639,442.91,639.83,455.91,638.62Z" transform="translate(-307.4 -162.85)"/><path class="cls-77" d="M667,343.73l-30.54,17.63a2.8,2.8,0,0,0,0,4.85L685,394.28a2.8,2.8,0,0,0,2.8,0l30.54-17.63a2.8,2.8,0,0,0,0-4.85l-48.61-28.06A2.8,2.8,0,0,0,667,343.73Z" transform="translate(-307.4 -162.85)"/><path class="cls-78" d="M667,337.49l-30.54,17.63a2.8,2.8,0,0,0,0,4.85L685,388a2.8,2.8,0,0,0,2.8,0l30.54-17.63a2.8,2.8,0,0,0,0-4.85l-48.61-28.06A2.8,2.8,0,0,0,667,337.49Z" transform="translate(-307.4 -162.85)"/><path class="cls-79" d="M665.55,346l-15.27,8.82a1.4,1.4,0,0,0,0,2.42l24.31,14a1.4,1.4,0,0,0,1.4,0l15.27-8.82a1.4,1.4,0,0,0,0-2.42l-24.31-14A1.4,1.4,0,0,0,665.55,346Z" transform="translate(-307.4 -162.85)"/><path class="cls-80" d="M695.24,368.13l0,0-2.5,1.76c-.11.08-.21,0-.22-.16a.55.55,0,0,1,.18-.44l2.2-1.55a3.54,3.54,0,0,0-4.17-.45l-3.55,2.06a3.55,3.55,0,0,0,3.56,6.15l3.55-2.06a3.55,3.55,0,0,0,1.77-3.08A3.5,3.5,0,0,0,695.24,368.13Z" transform="translate(-307.4 -162.85)"/><path class="cls-81" d="M692.5,369.76c0,.17.11.24.22.16l2.5-1.76,0,0a3.56,3.56,0,0,0-.36-.37l-2.2,1.55A.55.55,0,0,0,692.5,369.76Z" transform="translate(-307.4 -162.85)"/></g></svg>