<svg xmlns="http://www.w3.org/2000/svg" xmlns:xlink="http://www.w3.org/1999/xlink" viewBox="0 0 609.78 484.55"><defs><style>.cls-1{fill:#bbc3c6;}.cls-2{fill:url(#linear-gradient);}.cls-3{fill:url(#linear-gradient-2);}.cls-4{fill:#9da4a7;}.cls-5{fill:url(#linear-gradient-3);}.cls-6{fill:url(#linear-gradient-4);}.cls-7{fill:url(#linear-gradient-5);}.cls-8{fill:#3c4451;}.cls-9{fill:#fff;}.cls-10{fill:url(#linear-gradient-6);}.cls-11{fill:#2f343a;}.cls-12{opacity:0.02;fill:url(#linear-gradient-7);}.cls-13{fill:url(#linear-gradient-8);}.cls-14,.cls-17,.cls-21{fill:#010101;}.cls-14,.cls-16{opacity:0.19;}.cls-15{fill:url(#linear-gradient-9);}.cls-18{fill:url(#linear-gradient-10);}.cls-19{fill:url(#linear-gradient-11);}.cls-20,.cls-21{opacity:0.08;}.cls-22{fill:url(#linear-gradient-12);}.cls-23{fill:url(#linear-gradient-13);}.cls-24{fill:url(#linear-gradient-14);}.cls-25{fill:url(#linear-gradient-15);}.cls-26{fill:url(#linear-gradient-16);}.cls-27{fill:url(#linear-gradient-17);}.cls-28{fill:url(#linear-gradient-18);}.cls-29{fill:url(#linear-gradient-19);}.cls-30{fill:url(#linear-gradient-20);}.cls-31{fill:url(#linear-gradient-21);}.cls-32{fill:url(#linear-gradient-22);}.cls-33{fill:url(#linear-gradient-23);}.cls-34{fill:url(#linear-gradient-24);}.cls-35{fill:url(#linear-gradient-25);}.cls-36{fill:url(#linear-gradient-26);}.cls-37{fill:url(#linear-gradient-27);}.cls-38{fill:url(#linear-gradient-28);}.cls-39{fill:url(#linear-gradient-29);}.cls-40{fill:url(#linear-gradient-30);}.cls-41{fill:url(#linear-gradient-31);}.cls-42{fill:url(#linear-gradient-32);}.cls-43{fill:url(#linear-gradient-33);}.cls-44{fill:url(#linear-gradient-34);}.cls-45{fill:url(#linear-gradient-35);}.cls-46{fill:url(#linear-gradient-36);}.cls-47{fill:url(#linear-gradient-37);}.cls-48{fill:url(#linear-gradient-38);}.cls-49{fill:url(#linear-gradient-39);}.cls-50{fill:url(#linear-gradient-40);}.cls-51{fill:url(#linear-gradient-41);}.cls-52{fill:url(#linear-gradient-42);}.cls-53{fill:url(#linear-gradient-43);}.cls-54{fill:url(#linear-gradient-44);}.cls-55{fill:url(#linear-gradient-45);}.cls-56{fill:url(#linear-gradient-46);}.cls-57{fill:url(#linear-gradient-47);}.cls-58{fill:url(#linear-gradient-48);}.cls-59{fill:url(#linear-gradient-49);}.cls-60{fill:url(#linear-gradient-50);}.cls-61{fill:url(#linear-gradient-51);}.cls-62{fill:url(#linear-gradient-52);}.cls-63{fill:url(#linear-gradient-53);}.cls-64{fill:url(#linear-gradient-54);}.cls-65{fill:url(#linear-gradient-55);}</style><linearGradient id="linear-gradient" x1="658.42" y1="560.53" x2="590.44" y2="492.56" gradientUnits="userSpaceOnUse"><stop offset="0" stop-color="#acb1b5"/><stop offset="1" stop-color="#bbc3c6"/></linearGradient><linearGradient id="linear-gradient-2" x1="565.82" y1="526.65" x2="682.4" y2="526.65" gradientUnits="userSpaceOnUse"><stop offset="0.01" stop-color="#f0f4fa" stop-opacity="0.9"/><stop offset="0.16" stop-color="#f0f4fa"/><stop offset="0.47" stop-color="#eff3fa"/><stop offset="0.57" stop-color="#e6e9ee"/><stop offset="1" stop-color="#bbc3c6"/></linearGradient><linearGradient id="linear-gradient-3" x1="436.49" y1="590.25" x2="650.8" y2="590.25" gradientUnits="userSpaceOnUse"><stop offset="0.01" stop-color="#f0f4fa"/><stop offset="0.23" stop-color="#f0f4fa"/><stop offset="0.66" stop-color="#eff3fa"/><stop offset="1" stop-color="#d4dded"/></linearGradient><linearGradient id="linear-gradient-4" x1="639.07" y1="613.98" x2="653.39" y2="613.98" xlink:href="#linear-gradient-3"/><linearGradient id="linear-gradient-5" x1="494.38" y1="481.32" x2="794.04" y2="481.32" xlink:href="#linear-gradient-2"/><linearGradient id="linear-gradient-6" x1="497.39" y1="374.65" x2="794.04" y2="374.65" gradientUnits="userSpaceOnUse"><stop offset="0" stop-color="#fff"/><stop offset="1" stop-color="#989a9d"/></linearGradient><linearGradient id="linear-gradient-7" x1="168.23" y1="255.14" x2="438.77" y2="255.14" xlink:href="#linear-gradient-2"/><linearGradient id="linear-gradient-8" x1="489.32" y1="481.09" x2="788.99" y2="481.09" xlink:href="#linear-gradient-3"/><linearGradient id="linear-gradient-9" x1="531.34" y1="342.88" x2="624.41" y2="342.88" gradientUnits="userSpaceOnUse"><stop offset="0" stop-color="#5196d1"/><stop offset="1" stop-color="#6bb8e6"/></linearGradient><linearGradient id="linear-gradient-10" x1="653.1" y1="410.59" x2="746.16" y2="410.59" gradientUnits="userSpaceOnUse"><stop offset="0" stop-color="#ec5153"/><stop offset="0.44" stop-color="#eb6864"/><stop offset="1" stop-color="#ec5455"/></linearGradient><linearGradient id="linear-gradient-11" x1="650.8" y1="649.91" x2="751.33" y2="649.91" xlink:href="#linear-gradient-3"/><linearGradient id="linear-gradient-12" x1="335.65" y1="316.29" x2="349.27" y2="316.29" xlink:href="#linear-gradient-9"/><linearGradient id="linear-gradient-13" x1="351.37" y1="325.13" x2="359.95" y2="325.13" xlink:href="#linear-gradient-9"/><linearGradient id="linear-gradient-14" x1="363.88" y1="333.38" x2="377.5" y2="333.38" xlink:href="#linear-gradient-9"/><linearGradient id="linear-gradient-15" x1="378.89" y1="342.47" x2="392.52" y2="342.47" xlink:href="#linear-gradient-9"/><linearGradient id="linear-gradient-16" x1="398.88" y1="353.89" x2="407.45" y2="353.89" xlink:href="#linear-gradient-9"/><linearGradient id="linear-gradient-17" x1="413.33" y1="363.32" x2="426.96" y2="363.32" xlink:href="#linear-gradient-9"/><linearGradient id="linear-gradient-18" x1="429.58" y1="373.16" x2="443.2" y2="373.16" xlink:href="#linear-gradient-9"/><linearGradient id="linear-gradient-19" x1="444.85" y1="382.8" x2="458.48" y2="382.8" xlink:href="#linear-gradient-9"/><linearGradient id="linear-gradient-20" x1="335.65" y1="347.69" x2="349.27" y2="347.69" xlink:href="#linear-gradient-9"/><linearGradient id="linear-gradient-21" x1="351.37" y1="356.53" x2="359.95" y2="356.53" xlink:href="#linear-gradient-9"/><linearGradient id="linear-gradient-22" x1="366.4" y1="365.62" x2="374.98" y2="365.62" xlink:href="#linear-gradient-9"/><linearGradient id="linear-gradient-23" x1="378.89" y1="373.87" x2="392.52" y2="373.87" xlink:href="#linear-gradient-9"/><linearGradient id="linear-gradient-24" x1="398.88" y1="385.29" x2="407.45" y2="385.29" xlink:href="#linear-gradient-9"/><linearGradient id="linear-gradient-25" x1="415.85" y1="395.57" x2="424.43" y2="395.57" xlink:href="#linear-gradient-9"/><linearGradient id="linear-gradient-26" x1="431.81" y1="405.22" x2="440.38" y2="405.22" xlink:href="#linear-gradient-9"/><linearGradient id="linear-gradient-27" x1="447.38" y1="415.04" x2="455.95" y2="415.04" xlink:href="#linear-gradient-9"/><linearGradient id="linear-gradient-28" x1="335.65" y1="379.08" x2="349.27" y2="379.08" xlink:href="#linear-gradient-9"/><linearGradient id="linear-gradient-29" x1="351.37" y1="387.92" x2="359.95" y2="387.92" xlink:href="#linear-gradient-9"/><linearGradient id="linear-gradient-30" x1="366.4" y1="397.02" x2="374.98" y2="397.02" xlink:href="#linear-gradient-9"/><linearGradient id="linear-gradient-31" x1="381.42" y1="406.11" x2="389.99" y2="406.11" xlink:href="#linear-gradient-9"/><linearGradient id="linear-gradient-32" x1="396.35" y1="415.83" x2="409.98" y2="415.83" xlink:href="#linear-gradient-9"/><linearGradient id="linear-gradient-33" x1="413.33" y1="426.11" x2="426.96" y2="426.11" xlink:href="#linear-gradient-9"/><linearGradient id="linear-gradient-34" x1="431.81" y1="437.01" x2="440.38" y2="437.01" xlink:href="#linear-gradient-9"/><linearGradient id="linear-gradient-35" x1="444.85" y1="445.59" x2="458.48" y2="445.59" xlink:href="#linear-gradient-9"/><linearGradient id="linear-gradient-36" x1="335.65" y1="410.48" x2="349.27" y2="410.48" xlink:href="#linear-gradient-9"/><linearGradient id="linear-gradient-37" x1="351.37" y1="419.32" x2="359.95" y2="419.32" xlink:href="#linear-gradient-9"/><linearGradient id="linear-gradient-38" x1="366.4" y1="428.42" x2="374.98" y2="428.42" xlink:href="#linear-gradient-9"/><linearGradient id="linear-gradient-39" x1="378.89" y1="436.66" x2="392.52" y2="436.66" xlink:href="#linear-gradient-9"/><linearGradient id="linear-gradient-40" x1="396.35" y1="447.23" x2="409.98" y2="447.23" xlink:href="#linear-gradient-9"/><linearGradient id="linear-gradient-41" x1="415.85" y1="458.36" x2="424.43" y2="458.36" xlink:href="#linear-gradient-9"/><linearGradient id="linear-gradient-42" x1="429.58" y1="467.35" x2="443.2" y2="467.35" xlink:href="#linear-gradient-9"/><linearGradient id="linear-gradient-43" x1="447.38" y1="477.84" x2="455.95" y2="477.84" xlink:href="#linear-gradient-9"/><linearGradient id="linear-gradient-44" x1="815.59" y1="415.42" x2="836.28" y2="415.42" xlink:href="#linear-gradient-10"/><linearGradient id="linear-gradient-45" x1="841.64" y1="429.91" x2="859.18" y2="429.91" xlink:href="#linear-gradient-10"/><linearGradient id="linear-gradient-46" x1="864.21" y1="442.9" x2="880.53" y2="442.9" xlink:href="#linear-gradient-10"/><linearGradient id="linear-gradient-47" x1="884.56" y1="454.95" x2="900.89" y2="454.95" xlink:href="#linear-gradient-10"/><linearGradient id="linear-gradient-48" x1="902.9" y1="468.43" x2="928.14" y2="468.43" xlink:href="#linear-gradient-10"/><linearGradient id="linear-gradient-49" x1="803.19" y1="451.34" x2="843.12" y2="451.34" xlink:href="#linear-gradient-10"/><linearGradient id="linear-gradient-50" x1="844.12" y1="473.88" x2="869.37" y2="473.88" xlink:href="#linear-gradient-10"/><linearGradient id="linear-gradient-51" x1="873.39" y1="489.7" x2="893.54" y2="489.7" xlink:href="#linear-gradient-10"/><linearGradient id="linear-gradient-52" x1="897.56" y1="502.88" x2="913.89" y2="502.88" xlink:href="#linear-gradient-10"/><linearGradient id="linear-gradient-53" x1="918.25" y1="514.36" x2="940.55" y2="514.36" xlink:href="#linear-gradient-10"/><linearGradient id="linear-gradient-54" x1="474.89" y1="280.78" x2="402.36" y2="322.65" gradientUnits="userSpaceOnUse"><stop offset="0.14" stop-color="#3c4451"/><stop offset="0.24" stop-color="#44617f"/><stop offset="0.41" stop-color="#5196d1"/><stop offset="0.57" stop-color="#82b4de" stop-opacity="0.72"/><stop offset="0.94" stop-color="#fcfdfe" stop-opacity="0.01"/><stop offset="0.94" stop-color="#fff" stop-opacity="0"/></linearGradient><linearGradient id="linear-gradient-55" x1="817.88" y1="533.94" x2="858.45" y2="493.37" gradientUnits="userSpaceOnUse"><stop offset="0.14" stop-color="#3c4451"/><stop offset="0.26" stop-color="#6a4852"/><stop offset="0.53" stop-color="#dd5153"/><stop offset="0.57" stop-color="#eb5253"/><stop offset="0.66" stop-color="#f07d7e" stop-opacity="0.75"/><stop offset="0.89" stop-color="#fdeaea" stop-opacity="0.12"/><stop offset="0.93" stop-color="#fff" stop-opacity="0"/></linearGradient></defs><title>isometric-snippet</title><g id="Layer_2" data-name="Layer 2"><rect class="cls-1" x="230.18" y="320.21" width="4.55" height="4.55"/><path class="cls-2" d="M685.13,533.82,654,562.55a13,13,0,0,1-15.37,1.71l-70.34-40.64a5,5,0,0,1,.48-8.92l46-21.48Z" transform="translate(-335.65 -194.66)"/><path class="cls-3" d="M682.4,532.21,654,558.37a13,13,0,0,1-15.37,1.71l-70.34-40.64a5,5,0,0,1,.48-8.92l43-19Z" transform="translate(-335.65 -194.66)"/><rect class="cls-1" x="100.99" y="374.34" width="3.64" height="5.01"/><polygon class="cls-4" points="302.85 427.86 284.38 417.25 296.79 411.52 302.85 427.86"/><path class="cls-1" d="M655,606.25l-.19-.19-2.2-1.26a10.19,10.19,0,0,0-6.58.46,17.06,17.06,0,0,0-8.17,6.63,10.75,10.75,0,0,0-1.88,5.92c.13,4.81,4.83,7,10.5,4.86s10.18-7.74,10-12.55A5.6,5.6,0,0,0,655,606.25Z" transform="translate(-335.65 -194.66)"/><path class="cls-1" d="M646,609.83a10.19,10.19,0,0,1,6.58-.46L519.35,532.88a15.73,15.73,0,0,0-15.7,0l-65.28,37.69a3.43,3.43,0,0,0,0,5.94l140.16,81.14a10.65,10.65,0,0,0,12.25-1.11l47.07-40.11A17.06,17.06,0,0,1,646,609.83Z" transform="translate(-335.65 -194.66)"/><path class="cls-5" d="M646,605.27a11.84,11.84,0,0,1,4.35-.81.43.43,0,0,0,.23-.8l-136-78.19a13.26,13.26,0,0,0-13.74.32l-62.7,40.07a3.55,3.55,0,0,0,.13,6.06l146.51,84.82a.44.44,0,0,0,.5,0l52.53-44.76.08-.09A17.06,17.06,0,0,1,646,605.27Z" transform="translate(-335.65 -194.66)"/><path class="cls-6" d="M652.31,608.6l-.13-.13a4.07,4.07,0,0,0-1.53-.88,6.53,6.53,0,0,0-2.12-.23,8.65,8.65,0,0,0-2.47.55,11.88,11.88,0,0,0-5.69,4.62,7.48,7.48,0,0,0-1.31,4.12c.09,3.35,3.36,4.86,7.31,3.38s7.08-5.39,7-8.74A3.9,3.9,0,0,0,652.31,608.6Z" transform="translate(-335.65 -194.66)"/><path class="cls-7" d="M794,547.71l-5,6.93L494.38,383.25v26.36A18.75,18.75,0,0,0,501,423.87l265,153A18.75,18.75,0,0,0,794,560.52l0-8.37Z" transform="translate(-335.65 -194.66)"/><path class="cls-8" d="M494.38,377.82l2.4,1.4a4.83,4.83,0,0,1-2.4-4.18V204.24a9.42,9.42,0,0,1,3-7,9.56,9.56,0,0,0-8.06,9.45v170.8a4.83,4.83,0,0,0,1.83,3.78l3.23,1.72Z" transform="translate(-335.65 -194.66)"/><polygon class="cls-8" points="156.07 187.05 156.07 187.05 158.72 188.59 158.72 188.59 156.07 187.05"/><polygon class="cls-8" points="158.72 188.59 158.72 188.59 453.3 359.98 158.72 188.59"/><path class="cls-9" d="M489.32,380.31l2.4,1.4a4.84,4.84,0,0,1-.58-.4Z" transform="translate(-335.65 -194.66)"/><path class="cls-10" d="M794,542l-.73-169.12a18.75,18.75,0,0,0-6.56-14.17,9.44,9.44,0,0,0-1.38-1l-32.46-19L508.78,196a9.53,9.53,0,0,0-11.39,1.3,9.43,9.43,0,0,1,6.34,1.19L735.95,334.32l44.37,26a9.43,9.43,0,0,1,1.38,1,18.75,18.75,0,0,1,6.56,14.17L789,544.51c0,.57,0,1.13-.07,1.68l0,8.45,5-6.93,0-4C794,543.15,794,542.59,794,542Z" transform="translate(-335.65 -194.66)"/><path class="cls-9" d="M494.38,383l-3.23-1.72a4.84,4.84,0,0,0,.58.4l2.65,1.54Z" transform="translate(-335.65 -194.66)"/><path class="cls-8" d="M789,544.51l-.73-169.12a18.75,18.75,0,0,0-6.56-14.17,9.43,9.43,0,0,0-1.38-1l-44.37-26L503.72,198.47a9.43,9.43,0,0,0-6.34-1.19,9.42,9.42,0,0,0-3,7V375a4.83,4.83,0,0,0,2.4,4.18l-2.4-1.4v5.43L789,554.64l0-8.45C789,545.64,789,545.08,789,544.51Zm-14.56-15.77-160.9-92.9c-.16-.09-.32-.15-.48-.24l-26.67-15.4-82.49-47.63V214.7l109.16,63c.16.08.32.14.48.24l121.9,70.38,39,22.52Z" transform="translate(-335.65 -194.66)"/><path class="cls-11" d="M735.42,348.34,613.53,278c-.16-.09-.32-.15-.48-.24l-109.16-63V372.58l82.49,47.63L613,435.61c.16.08.32.14.48.24l160.9,92.9V370.85Z" transform="translate(-335.65 -194.66)"/><polygon class="cls-12" points="438.77 334.08 438.77 176.2 168.23 177.93 438.77 334.08"/><path class="cls-13" d="M495.9,426.35l265,153A18.75,18.75,0,0,0,789,563l0-8.37L489.32,380.31V412.1A18.75,18.75,0,0,0,495.9,426.35Z" transform="translate(-335.65 -194.66)"/><path class="cls-14" d="M543.39,289.48v49.28a5.41,5.41,0,0,0,2.7,4.68l82.25,47.49a5.41,5.41,0,0,0,8.11-4.71l-.21-48.78a5.41,5.41,0,0,0-2.68-4.64l-82-48A5.41,5.41,0,0,0,543.39,289.48Z" transform="translate(-335.65 -194.66)"/><path class="cls-15" d="M531.34,294.49v49.28a5.41,5.41,0,0,0,2.7,4.68l82.25,47.49a5.41,5.41,0,0,0,8.11-4.71l-.21-48.78a5.41,5.41,0,0,0-2.68-4.64l-82-48A5.41,5.41,0,0,0,531.34,294.49Z" transform="translate(-335.65 -194.66)"/><g class="cls-16"><path class="cls-17" d="M550.94,322.48v12.65l-3.45-2.07V320.41Z" transform="translate(-335.65 -194.66)"/><path class="cls-17" d="M556.9,326.07l4.39,9.34v-6.7l3.47,2.09v12.65l-3.07-1.85-4.39-9.36V339l-3.47-2.09V324.22Z" transform="translate(-335.65 -194.66)"/><path class="cls-17" d="M577.79,343.11c0,2.42-1.88,3.37-4.93,1.53l-1.73-1v3.67l-3.47-2.09V332.54l5.2,3.13C575.91,337.5,577.79,340.69,577.79,343.11Zm-3.12-1.88a3.31,3.31,0,0,0-1.93-2.72l-1.61-1v3.13l1.61,1C574.22,342.53,574.67,342,574.67,341.23Z" transform="translate(-335.65 -194.66)"/><path class="cls-17" d="M591.3,346.75v7.48c0,3.63-2.53,3.92-5.58,2.08s-5.56-5.15-5.56-8.78V340l3.45,2.07v7.59a4.29,4.29,0,0,0,2.11,3.57c1.17.71,2.11.49,2.11-1v-7.59Z" transform="translate(-335.65 -194.66)"/><path class="cls-17" d="M604,357.29l-3.7-2.23v9.72l-3.45-2.07V353l-3.7-2.23v-2.93L604,354.36Z" transform="translate(-335.65 -194.66)"/></g><path class="cls-9" d="M549.21,323v12.65l-3.45-2.07V320.89Z" transform="translate(-335.65 -194.66)"/><path class="cls-9" d="M555.17,326.55l4.39,9.34v-6.7l3.47,2.09v12.65L560,342.08l-4.39-9.36v6.72l-3.47-2.09V324.71Z" transform="translate(-335.65 -194.66)"/><path class="cls-9" d="M576.07,343.59c0,2.42-1.88,3.37-4.93,1.53l-1.73-1v3.67l-3.47-2.09V333l5.2,3.13C574.19,338,576.07,341.17,576.07,343.59Zm-3.12-1.88A3.31,3.31,0,0,0,571,339l-1.61-1v3.13l1.61,1C572.49,343,572.94,342.51,572.94,341.72Z" transform="translate(-335.65 -194.66)"/><path class="cls-9" d="M589.57,347.23v7.48c0,3.63-2.53,3.92-5.58,2.08s-5.56-5.15-5.56-8.78v-7.48l3.45,2.07v7.59a4.29,4.29,0,0,0,2.11,3.57c1.17.71,2.11.49,2.11-1v-7.59Z" transform="translate(-335.65 -194.66)"/><path class="cls-9" d="M602.24,357.77l-3.7-2.23v9.72l-3.45-2.07v-9.72l-3.7-2.23v-2.93l10.86,6.53Z" transform="translate(-335.65 -194.66)"/><path class="cls-14" d="M665.14,357.19v49.28a5.41,5.41,0,0,0,2.7,4.68l82.25,47.49a5.41,5.41,0,0,0,8.11-4.71L758,405.16a5.41,5.41,0,0,0-2.68-4.64l-82-48A5.41,5.41,0,0,0,665.14,357.19Z" transform="translate(-335.65 -194.66)"/><path class="cls-18" d="M653.1,362.21v49.28a5.41,5.41,0,0,0,2.7,4.68L738,463.66a5.41,5.41,0,0,0,8.11-4.71l-.21-48.78a5.41,5.41,0,0,0-2.68-4.64l-82-48A5.41,5.41,0,0,0,653.1,362.21Z" transform="translate(-335.65 -194.66)"/><g class="cls-16"><path class="cls-17" d="M675.06,396.67c0,3.65-3.14,4.77-6.79,2.64s-6.81-6.91-6.81-10.55,3.16-4.77,6.81-2.65S675.06,393,675.06,396.67Zm-3.32-1.93a7.24,7.24,0,0,0-3.47-5.49c-1.92-1.11-3.47-.46-3.47,1.45a7.2,7.2,0,0,0,3.47,5.47C670.18,397.28,671.74,396.65,671.74,394.73Z" transform="translate(-335.65 -194.66)"/><path class="cls-17" d="M688.38,398.09v7.48c0,3.63-2.53,4-5.58,2.19s-5.56-5-5.56-8.67v-7.48l3.45,2v7.59a4.19,4.19,0,0,0,2.11,3.52c1.17.68,2.11.45,2.11-1.06v-7.59Z" transform="translate(-335.65 -194.66)"/><path class="cls-17" d="M701.06,408.39l-3.7-2.15V416l-3.45-2v-9.72l-3.7-2.15v-2.93l10.86,6.31Z" transform="translate(-335.65 -194.66)"/><path class="cls-17" d="M713.19,417c0,2.42-1.88,3.41-4.93,1.63l-1.74-1v3.67l-3.47-2V406.62l5.2,3C711.31,411.42,713.19,414.57,713.19,417Zm-3.12-1.82a3.23,3.23,0,0,0-1.93-2.68l-1.61-.94v3.13l1.61.94C709.61,416.49,710.06,416,710.06,415.18Z" transform="translate(-335.65 -194.66)"/><path class="cls-17" d="M726.69,420.37v7.48c0,3.63-2.53,4-5.58,2.19s-5.56-5-5.56-8.67v-7.48l3.45,2v7.59a4.19,4.19,0,0,0,2.11,3.52c1.17.68,2.11.45,2.11-1.06v-7.59Z" transform="translate(-335.65 -194.66)"/><path class="cls-17" d="M739.36,430.66l-3.7-2.15v9.72l-3.45-2V426.5l-3.7-2.15v-2.93l10.86,6.31Z" transform="translate(-335.65 -194.66)"/></g><path class="cls-9" d="M672.42,396.73c0,3.65-3.14,4.77-6.79,2.64s-6.81-6.91-6.81-10.55,3.16-4.77,6.81-2.65S672.42,393.08,672.42,396.73Zm-3.32-1.93a7.24,7.24,0,0,0-3.47-5.49c-1.92-1.11-3.47-.46-3.47,1.45a7.2,7.2,0,0,0,3.47,5.47C667.54,397.35,669.1,396.72,669.1,394.8Z" transform="translate(-335.65 -194.66)"/><path class="cls-9" d="M685.74,398.16v7.48c0,3.63-2.53,4-5.58,2.19s-5.56-5-5.56-8.67v-7.48l3.45,2v7.59a4.19,4.19,0,0,0,2.11,3.52c1.17.68,2.11.45,2.11-1.06v-7.59Z" transform="translate(-335.65 -194.66)"/><path class="cls-9" d="M698.42,408.46l-3.7-2.15V416l-3.45-2v-9.72l-3.7-2.15v-2.93l10.86,6.31Z" transform="translate(-335.65 -194.66)"/><path class="cls-9" d="M710.54,417.06c0,2.42-1.88,3.41-4.93,1.63l-1.74-1v3.67l-3.47-2V406.69l5.2,3C708.67,411.49,710.54,414.64,710.54,417.06Zm-3.12-1.82a3.23,3.23,0,0,0-1.93-2.68l-1.61-.94v3.13l1.61.94C707,416.56,707.42,416,707.42,415.25Z" transform="translate(-335.65 -194.66)"/><path class="cls-9" d="M724,420.44v7.48c0,3.63-2.53,4-5.58,2.19s-5.56-5-5.56-8.67V414l3.45,2v7.59a4.19,4.19,0,0,0,2.11,3.52c1.17.68,2.11.45,2.11-1.06v-7.59Z" transform="translate(-335.65 -194.66)"/><path class="cls-9" d="M736.72,430.73l-3.7-2.15v9.72l-3.45-2v-9.72l-3.7-2.15v-2.93l10.86,6.31Z" transform="translate(-335.65 -194.66)"/><path class="cls-1" d="M681.29,679.21s53.87-22.08,70-37.84C751.33,641.36,717.06,626.17,681.29,679.21Z" transform="translate(-335.65 -194.66)"/><path class="cls-19" d="M717.87,620.6l33.46,20.76s-32.7-9.33-70,37.84L650.8,663.31S679.52,620.78,717.87,620.6Z" transform="translate(-335.65 -194.66)"/><g class="cls-20"><path class="cls-17" d="M841.16,406.91v23.47l-6.4-3.79v-9l-7.88-4.66v9l-6.4-3.79V394.67l6.4,3.79v9l7.88,4.66v-9Z" transform="translate(-335.65 -194.66)"/><path class="cls-17" d="M864.06,438.49v5.43l-17.54-10.38V410.08l17,10v5.43l-10.56-6.25v3.59l9.52,5.63V434l-9.52-5.64v3.59Z" transform="translate(-335.65 -194.66)"/><path class="cls-17" d="M885.42,451.13v5.43l-16.33-9.66V423.43l6.44,3.81v18Z" transform="translate(-335.65 -194.66)"/><path class="cls-17" d="M905.77,463.18v5.43l-16.33-9.66V435.48l6.44,3.81v18Z" transform="translate(-335.65 -194.66)"/><path class="cls-17" d="M933,473c0,6.77-5.83,8.78-12.61,4.77s-12.64-12.95-12.64-19.72,5.87-8.8,12.64-4.79S933,466.23,933,473Zm-6.17-3.65c0-3.55-2.88-8.14-6.44-10.25s-6.44-.93-6.44,2.63,2.88,8.11,6.44,10.21S926.85,472.91,926.85,469.35Z" transform="translate(-335.65 -194.66)"/><path class="cls-17" d="M848,451.19l-9,18.13-7-4.15-4-14.54-3.92,9.88-7-4.17-9-28.78,7.54,4.47,4.69,17.23,4.16-12,7.14,4.23,4.16,16.91,4.7-11.67Z" transform="translate(-335.65 -194.66)"/><path class="cls-17" d="M874.25,478.46c0,6.77-5.83,8.79-12.61,4.78S849,470.29,849,463.52s5.87-8.8,12.64-4.79S874.25,471.68,874.25,478.46Zm-6.17-3.65c0-3.55-2.88-8.14-6.44-10.25s-6.44-.93-6.44,2.63,2.88,8.11,6.44,10.21S868.08,478.36,868.08,474.81Z" transform="translate(-335.65 -194.66)"/><path class="cls-17" d="M887,490.21l-2.35-1.39v7.54l-6.4-3.79V469.1l9.62,5.69c5.67,3.35,9.19,8.92,9.19,13.38,0,2.82-1.37,4.42-3.79,4.4l5.13,11.92-7-4.17Zm-2.35-6.82,3,1.77c2.75,1.63,3.62,1.1,3.62-.4s-.87-3-3.62-4.66l-3-1.77Z" transform="translate(-335.65 -194.66)"/><path class="cls-17" d="M918.77,511.11v5.43l-16.33-9.66V483.41l6.44,3.81v18Z" transform="translate(-335.65 -194.66)"/><path class="cls-17" d="M945.43,520.58c0,6.3-4.29,9.19-13,4l-9.25-5.48V495.65l9.25,5.48C941.17,506.32,945.43,514.28,945.43,520.58Zm-6-3.53c0-3.49-2.15-7.57-7.51-10.75l-2.42-1.43v12.61l2.42,1.43C937.31,522.08,939.46,520.5,939.46,517Z" transform="translate(-335.65 -194.66)"/></g><path class="cls-21" d="M351.86,317.1c0,5.7-2.33,8.13-6.82,5.41s-6.8-8-6.8-13.66,2.33-8.16,6.8-5.45S351.86,311.4,351.86,317.1Zm-4.24-2.57c0-2.64-.63-5.3-2.59-6.48s-2.56.72-2.56,3.36.63,5.27,2.56,6.44S347.62,317.15,347.62,314.54Z" transform="translate(-335.65 -194.66)"/><path class="cls-21" d="M362.54,314.42v18.31l-5-3V316.32l-3.56-.74V310.9l4.13.83Z" transform="translate(-335.65 -194.66)"/><path class="cls-21" d="M380.09,334.19c0,5.7-2.33,8.13-6.82,5.41s-6.8-8-6.8-13.66,2.33-8.16,6.8-5.45S380.09,328.49,380.09,334.19Zm-4.24-2.57c0-2.64-.63-5.3-2.59-6.48s-2.56.72-2.56,3.36.63,5.27,2.56,6.44S375.85,334.24,375.85,331.63Z" transform="translate(-335.65 -194.66)"/><path class="cls-21" d="M395.1,343.29c0,5.7-2.33,8.13-6.82,5.41s-6.8-8-6.8-13.66,2.33-8.16,6.8-5.45S395.1,337.58,395.1,343.29Zm-4.24-2.57c0-2.64-.63-5.3-2.59-6.48s-2.56.72-2.56,3.36.63,5.27,2.56,6.44S390.87,343.33,390.87,340.72Z" transform="translate(-335.65 -194.66)"/><path class="cls-21" d="M410,343.17v18.31l-5-3V345.08l-3.56-.74v-4.68l4.13.83Z" transform="translate(-335.65 -194.66)"/><path class="cls-21" d="M429.54,364.14c0,5.7-2.33,8.13-6.82,5.41s-6.8-8-6.8-13.66,2.33-8.16,6.8-5.45S429.54,358.43,429.54,364.14Zm-4.24-2.57c0-2.64-.63-5.3-2.59-6.48s-2.56.72-2.56,3.36.63,5.27,2.56,6.44S425.31,364.19,425.31,361.57Z" transform="translate(-335.65 -194.66)"/><path class="cls-21" d="M445.79,374c0,5.7-2.33,8.13-6.82,5.41s-6.8-8-6.8-13.66,2.33-8.16,6.8-5.45S445.79,368.27,445.79,374Zm-4.24-2.57c0-2.64-.63-5.3-2.59-6.48s-2.56.72-2.56,3.36.63,5.27,2.56,6.44S441.55,374,441.55,371.41Z" transform="translate(-335.65 -194.66)"/><path class="cls-21" d="M461.07,383.61c0,5.7-2.33,8.13-6.82,5.41s-6.8-8-6.8-13.66,2.33-8.16,6.8-5.45S461.07,377.91,461.07,383.61ZM456.83,381c0-2.64-.63-5.3-2.59-6.48s-2.56.72-2.56,3.36.63,5.27,2.56,6.44S456.83,383.66,456.83,381Z" transform="translate(-335.65 -194.66)"/><path class="cls-21" d="M351.86,348.5c0,5.7-2.33,8.13-6.82,5.41s-6.8-8-6.8-13.66,2.33-8.16,6.8-5.45S351.86,342.8,351.86,348.5Zm-4.24-2.57c0-2.64-.63-5.3-2.59-6.48s-2.56.72-2.56,3.36.63,5.27,2.56,6.44S347.62,348.55,347.62,345.94Z" transform="translate(-335.65 -194.66)"/><path class="cls-21" d="M362.54,345.81v18.31l-5-3V347.72L354,347v-4.68l4.13.83Z" transform="translate(-335.65 -194.66)"/><path class="cls-21" d="M377.56,354.91v18.31l-5-3V356.81l-3.56-.74v-4.68l4.13.83Z" transform="translate(-335.65 -194.66)"/><path class="cls-21" d="M395.1,374.68c0,5.7-2.33,8.13-6.82,5.41s-6.8-8-6.8-13.66,2.33-8.16,6.8-5.45S395.1,369,395.1,374.68Zm-4.24-2.57c0-2.64-.63-5.3-2.59-6.48s-2.56.72-2.56,3.36.63,5.27,2.56,6.44S390.87,374.73,390.87,372.12Z" transform="translate(-335.65 -194.66)"/><path class="cls-21" d="M410,374.57v18.31l-5-3V376.47l-3.56-.74v-4.68l4.13.83Z" transform="translate(-335.65 -194.66)"/><path class="cls-21" d="M427,384.85v18.31l-5-3V386.75l-3.56-.74v-4.68l4.13.83Z" transform="translate(-335.65 -194.66)"/><path class="cls-21" d="M443,394.51v18.31l-5-3V396.41l-3.56-.74V391l4.13.83Z" transform="translate(-335.65 -194.66)"/><path class="cls-21" d="M458.54,404.33v18.31l-5-3V406.23l-3.56-.74v-4.68l4.13.83Z" transform="translate(-335.65 -194.66)"/><path class="cls-21" d="M351.86,379.9c0,5.7-2.33,8.13-6.82,5.41s-6.8-8-6.8-13.66,2.33-8.16,6.8-5.45S351.86,374.2,351.86,379.9Zm-4.24-2.57c0-2.64-.63-5.3-2.59-6.48s-2.56.72-2.56,3.36.63,5.27,2.56,6.44S347.62,379.95,347.62,377.33Z" transform="translate(-335.65 -194.66)"/><path class="cls-21" d="M362.54,377.21v18.31l-5-3V379.11l-3.56-.74v-4.68l4.13.83Z" transform="translate(-335.65 -194.66)"/><path class="cls-21" d="M377.56,386.3v18.31l-5-3V388.21l-3.56-.74v-4.68l4.13.83Z" transform="translate(-335.65 -194.66)"/><path class="cls-21" d="M392.58,395.4V413.7l-5-3V397.3l-3.56-.74v-4.68l4.13.83Z" transform="translate(-335.65 -194.66)"/><path class="cls-21" d="M412.56,416.65c0,5.7-2.33,8.13-6.82,5.41s-6.8-8-6.8-13.66,2.33-8.16,6.8-5.45S412.56,410.95,412.56,416.65Zm-4.24-2.57c0-2.64-.63-5.3-2.59-6.48s-2.56.72-2.56,3.36.63,5.27,2.56,6.44S408.33,416.7,408.33,414.08Z" transform="translate(-335.65 -194.66)"/><path class="cls-21" d="M429.54,426.93c0,5.7-2.33,8.13-6.82,5.41s-6.8-8-6.8-13.66,2.33-8.16,6.8-5.45S429.54,421.23,429.54,426.93Zm-4.24-2.57c0-2.64-.63-5.3-2.59-6.48s-2.56.72-2.56,3.36.63,5.27,2.56,6.44S425.31,427,425.31,424.36Z" transform="translate(-335.65 -194.66)"/><path class="cls-21" d="M443,426.3V444.6l-5-3V428.2l-3.56-.74v-4.68l4.13.83Z" transform="translate(-335.65 -194.66)"/><path class="cls-21" d="M461.07,446.41c0,5.7-2.33,8.13-6.82,5.41s-6.8-8-6.8-13.66,2.33-8.16,6.8-5.45S461.07,440.7,461.07,446.41Zm-4.24-2.57c0-2.64-.63-5.3-2.59-6.48s-2.56.72-2.56,3.36.63,5.27,2.56,6.44S456.83,446.46,456.83,443.84Z" transform="translate(-335.65 -194.66)"/><path class="cls-21" d="M351.86,411.3c0,5.7-2.33,8.13-6.82,5.41s-6.8-8-6.8-13.66,2.33-8.16,6.8-5.45S351.86,405.59,351.86,411.3Zm-4.24-2.57c0-2.64-.63-5.3-2.59-6.48s-2.56.72-2.56,3.36.63,5.27,2.56,6.44S347.62,411.34,347.62,408.73Z" transform="translate(-335.65 -194.66)"/><path class="cls-21" d="M362.54,408.61v18.31l-5-3V410.51l-3.56-.74v-4.68l4.13.83Z" transform="translate(-335.65 -194.66)"/><path class="cls-21" d="M377.56,417.7V436l-5-3V419.6l-3.56-.74v-4.68l4.13.83Z" transform="translate(-335.65 -194.66)"/><path class="cls-21" d="M395.1,437.48c0,5.7-2.33,8.13-6.82,5.41s-6.8-8-6.8-13.66,2.33-8.16,6.8-5.45S395.1,431.77,395.1,437.48Zm-4.24-2.57c0-2.64-.63-5.3-2.59-6.48s-2.56.72-2.56,3.36.63,5.27,2.56,6.44S390.87,437.53,390.87,434.91Z" transform="translate(-335.65 -194.66)"/><path class="cls-21" d="M412.56,448c0,5.7-2.33,8.13-6.82,5.41s-6.8-8-6.8-13.66,2.33-8.16,6.8-5.45S412.56,442.34,412.56,448Zm-4.24-2.57c0-2.64-.63-5.3-2.59-6.48s-2.56.72-2.56,3.36.63,5.27,2.56,6.44S408.33,448.1,408.33,445.48Z" transform="translate(-335.65 -194.66)"/><path class="cls-21" d="M427,447.65V466l-5-3V449.55l-3.56-.74v-4.68l4.13.83Z" transform="translate(-335.65 -194.66)"/><path class="cls-21" d="M445.79,468.16c0,5.7-2.33,8.13-6.82,5.41s-6.8-8-6.8-13.66,2.33-8.16,6.8-5.45S445.79,462.46,445.79,468.16Zm-4.24-2.57c0-2.64-.63-5.3-2.59-6.48s-2.56.72-2.56,3.36.63,5.27,2.56,6.44S441.55,468.21,441.55,465.6Z" transform="translate(-335.65 -194.66)"/><path class="cls-21" d="M458.54,467.12v18.31l-5-3V469l-3.56-.74V463.6l4.13.83Z" transform="translate(-335.65 -194.66)"/><path class="cls-22" d="M349.27,320.43c0,5.7-2.33,8.13-6.82,5.41s-6.8-8-6.8-13.66,2.33-8.16,6.8-5.45S349.27,314.72,349.27,320.43ZM345,317.86c0-2.64-.63-5.3-2.59-6.48s-2.56.72-2.56,3.36.63,5.27,2.56,6.44S345,320.48,345,317.86Z" transform="translate(-335.65 -194.66)"/><path class="cls-23" d="M360,317.74V336l-5-3V319.64l-3.56-.74v-4.68l4.13.83Z" transform="translate(-335.65 -194.66)"/><path class="cls-24" d="M377.5,337.52c0,5.7-2.33,8.13-6.82,5.41s-6.8-8-6.8-13.66,2.33-8.16,6.8-5.45S377.5,331.81,377.5,337.52Zm-4.24-2.57c0-2.64-.63-5.3-2.59-6.48s-2.56.72-2.56,3.36.63,5.27,2.56,6.44S373.26,337.56,373.26,334.95Z" transform="translate(-335.65 -194.66)"/><path class="cls-25" d="M392.52,346.61c0,5.7-2.33,8.13-6.82,5.41s-6.8-8-6.8-13.66,2.33-8.16,6.8-5.45S392.52,340.91,392.52,346.61ZM388.28,344c0-2.64-.63-5.3-2.59-6.48s-2.56.72-2.56,3.36.63,5.27,2.56,6.44S388.28,346.66,388.28,344Z" transform="translate(-335.65 -194.66)"/><path class="cls-26" d="M407.45,346.5V364.8l-5-3V348.4l-3.56-.74V343l4.13.83Z" transform="translate(-335.65 -194.66)"/><path class="cls-27" d="M427,367.46c0,5.7-2.33,8.13-6.82,5.41s-6.8-8-6.8-13.66,2.33-8.16,6.8-5.45S427,361.76,427,367.46Zm-4.24-2.57c0-2.64-.63-5.3-2.59-6.48s-2.56.72-2.56,3.36.63,5.27,2.56,6.44S422.72,367.51,422.72,364.89Z" transform="translate(-335.65 -194.66)"/><path class="cls-28" d="M443.2,377.3c0,5.7-2.33,8.13-6.82,5.41s-6.8-8-6.8-13.66,2.33-8.16,6.8-5.45S443.2,371.59,443.2,377.3ZM439,374.73c0-2.64-.63-5.3-2.59-6.48s-2.56.72-2.56,3.36.63,5.27,2.56,6.44S439,377.34,439,374.73Z" transform="translate(-335.65 -194.66)"/><path class="cls-29" d="M458.48,386.94c0,5.7-2.33,8.13-6.82,5.41s-6.8-8-6.8-13.66,2.33-8.16,6.8-5.45S458.48,381.23,458.48,386.94Zm-4.24-2.57c0-2.64-.63-5.3-2.59-6.48s-2.56.72-2.56,3.36.63,5.27,2.56,6.44S454.24,387,454.24,384.37Z" transform="translate(-335.65 -194.66)"/><path class="cls-30" d="M349.27,351.82c0,5.7-2.33,8.13-6.82,5.41s-6.8-8-6.8-13.66,2.33-8.16,6.8-5.45S349.27,346.12,349.27,351.82ZM345,349.26c0-2.64-.63-5.3-2.59-6.48s-2.56.72-2.56,3.36.63,5.27,2.56,6.44S345,351.87,345,349.26Z" transform="translate(-335.65 -194.66)"/><path class="cls-31" d="M360,349.14v18.31l-5-3V351l-3.56-.74v-4.68l4.13.83Z" transform="translate(-335.65 -194.66)"/><path class="cls-32" d="M375,358.23v18.31l-5-3V360.13l-3.56-.74v-4.68l4.13.83Z" transform="translate(-335.65 -194.66)"/><path class="cls-33" d="M392.52,378c0,5.7-2.33,8.13-6.82,5.41s-6.8-8-6.8-13.66,2.33-8.16,6.8-5.45S392.52,372.3,392.52,378Zm-4.24-2.57c0-2.64-.63-5.3-2.59-6.48s-2.56.72-2.56,3.36.63,5.27,2.56,6.44S388.28,378.05,388.28,375.44Z" transform="translate(-335.65 -194.66)"/><path class="cls-34" d="M407.45,377.89V396.2l-5-3V379.8l-3.56-.74v-4.68l4.13.83Z" transform="translate(-335.65 -194.66)"/><path class="cls-35" d="M424.43,388.17v18.31l-5-3V390.08l-3.56-.74v-4.68l4.13.83Z" transform="translate(-335.65 -194.66)"/><path class="cls-36" d="M440.38,397.83v18.31l-5-3V399.73l-3.56-.74v-4.68l4.13.83Z" transform="translate(-335.65 -194.66)"/><path class="cls-37" d="M456,407.65V426l-5-3V409.55l-3.56-.74v-4.68l4.13.83Z" transform="translate(-335.65 -194.66)"/><path class="cls-38" d="M349.27,383.22c0,5.7-2.33,8.13-6.82,5.41s-6.8-8-6.8-13.66,2.33-8.16,6.8-5.45S349.27,377.52,349.27,383.22ZM345,380.65c0-2.64-.63-5.3-2.59-6.48s-2.56.72-2.56,3.36.63,5.27,2.56,6.44S345,383.27,345,380.65Z" transform="translate(-335.65 -194.66)"/><path class="cls-39" d="M360,380.53v18.31l-5-3V382.43l-3.56-.74V377l4.13.83Z" transform="translate(-335.65 -194.66)"/><path class="cls-40" d="M375,389.63v18.31l-5-3V391.53l-3.56-.74v-4.68l4.13.83Z" transform="translate(-335.65 -194.66)"/><path class="cls-41" d="M390,398.72V417l-5-3V400.62l-3.56-.74V395.2l4.13.83Z" transform="translate(-335.65 -194.66)"/><path class="cls-42" d="M410,420c0,5.7-2.33,8.13-6.82,5.41s-6.8-8-6.8-13.66,2.33-8.16,6.8-5.45S410,414.27,410,420Zm-4.24-2.57c0-2.64-.63-5.3-2.59-6.48s-2.56.72-2.56,3.36.63,5.27,2.56,6.44S405.74,420,405.74,417.41Z" transform="translate(-335.65 -194.66)"/><path class="cls-43" d="M427,430.25c0,5.7-2.33,8.13-6.82,5.41s-6.8-8-6.8-13.66,2.33-8.16,6.8-5.45S427,424.55,427,430.25Zm-4.24-2.57c0-2.64-.63-5.3-2.59-6.48s-2.56.72-2.56,3.36.63,5.27,2.56,6.44S422.72,430.3,422.72,427.69Z" transform="translate(-335.65 -194.66)"/><path class="cls-44" d="M440.38,429.62v18.31l-5-3V431.52l-3.56-.74V426.1l4.13.83Z" transform="translate(-335.65 -194.66)"/><path class="cls-45" d="M458.48,449.73c0,5.7-2.33,8.13-6.82,5.41s-6.8-8-6.8-13.66,2.33-8.16,6.8-5.45S458.48,444,458.48,449.73Zm-4.24-2.57c0-2.64-.63-5.3-2.59-6.48s-2.56.72-2.56,3.36.63,5.27,2.56,6.44S454.24,449.78,454.24,447.16Z" transform="translate(-335.65 -194.66)"/><path class="cls-46" d="M349.27,414.62c0,5.7-2.33,8.13-6.82,5.41s-6.8-8-6.8-13.66,2.33-8.16,6.8-5.45S349.27,408.92,349.27,414.62ZM345,412.05c0-2.64-.63-5.3-2.59-6.48s-2.56.72-2.56,3.36.63,5.27,2.56,6.44S345,414.67,345,412.05Z" transform="translate(-335.65 -194.66)"/><path class="cls-47" d="M360,411.93v18.31l-5-3V413.83l-3.56-.74v-4.68l4.13.83Z" transform="translate(-335.65 -194.66)"/><path class="cls-48" d="M375,421v18.31l-5-3V422.93l-3.56-.74v-4.68l4.13.83Z" transform="translate(-335.65 -194.66)"/><path class="cls-49" d="M392.52,440.8c0,5.7-2.33,8.13-6.82,5.41s-6.8-8-6.8-13.66,2.33-8.16,6.8-5.45S392.52,435.1,392.52,440.8Zm-4.24-2.57c0-2.64-.63-5.3-2.59-6.48s-2.56.72-2.56,3.36.63,5.27,2.56,6.44S388.28,440.85,388.28,438.23Z" transform="translate(-335.65 -194.66)"/><path class="cls-50" d="M410,451.37c0,5.7-2.33,8.13-6.82,5.41s-6.8-8-6.8-13.66,2.33-8.16,6.8-5.45S410,445.67,410,451.37Zm-4.24-2.57c0-2.64-.63-5.3-2.59-6.48s-2.56.72-2.56,3.36.63,5.27,2.56,6.44S405.74,451.42,405.74,448.8Z" transform="translate(-335.65 -194.66)"/><path class="cls-51" d="M424.43,451v18.31l-5-3V452.87l-3.56-.74v-4.68l4.13.83Z" transform="translate(-335.65 -194.66)"/><path class="cls-52" d="M443.2,471.49c0,5.7-2.33,8.13-6.82,5.41s-6.8-8-6.8-13.66,2.33-8.16,6.8-5.45S443.2,465.78,443.2,471.49ZM439,468.92c0-2.64-.63-5.3-2.59-6.48s-2.56.72-2.56,3.36.63,5.27,2.56,6.44S439,471.54,439,468.92Z" transform="translate(-335.65 -194.66)"/><path class="cls-53" d="M456,470.44v18.31l-5-3V472.35l-3.56-.74v-4.68l4.13.83Z" transform="translate(-335.65 -194.66)"/><path class="cls-54" d="M836.28,409.81v23.47l-6.4-3.79v-9L822,415.81v9l-6.4-3.79V397.57l6.4,3.79v9l7.88,4.66v-9Z" transform="translate(-335.65 -194.66)"/><path class="cls-55" d="M859.18,441.4v5.43l-17.54-10.38V413l17,10v5.43L848,422.2v3.59l9.52,5.63v5.43L848,431.22v3.59Z" transform="translate(-335.65 -194.66)"/><path class="cls-56" d="M880.53,454v5.43l-16.33-9.66V426.34l6.44,3.81v18Z" transform="translate(-335.65 -194.66)"/><path class="cls-57" d="M900.89,466.08v5.43l-16.33-9.66V438.38l6.44,3.81v18Z" transform="translate(-335.65 -194.66)"/><path class="cls-58" d="M928.14,475.91c0,6.77-5.83,8.78-12.61,4.77S902.9,467.74,902.9,461s5.87-8.8,12.64-4.79S928.14,469.14,928.14,475.91ZM922,472.26c0-3.55-2.88-8.14-6.44-10.25s-6.44-.93-6.44,2.63,2.88,8.11,6.44,10.21S922,475.81,922,472.26Z" transform="translate(-335.65 -194.66)"/><path class="cls-59" d="M843.12,454.09l-9,18.13-7-4.15-4-14.54-3.92,9.88-7-4.17-9-28.78,7.54,4.47,4.69,17.23,4.16-12,7.14,4.23,4.16,16.91,4.7-11.67Z" transform="translate(-335.65 -194.66)"/><path class="cls-60" d="M869.37,481.36c0,6.77-5.83,8.79-12.61,4.78s-12.64-12.95-12.64-19.72,5.87-8.8,12.64-4.79S869.37,474.59,869.37,481.36Zm-6.17-3.65c0-3.55-2.88-8.14-6.44-10.25s-6.44-.93-6.44,2.63,2.88,8.11,6.44,10.21S863.2,481.26,863.2,477.71Z" transform="translate(-335.65 -194.66)"/><path class="cls-61" d="M882.14,493.11l-2.35-1.39v7.54l-6.4-3.79V472L883,477.7c5.67,3.35,9.19,8.92,9.19,13.38,0,2.82-1.37,4.42-3.79,4.4l5.13,11.92-7-4.17Zm-2.35-6.82,3,1.77c2.75,1.63,3.62,1.1,3.62-.4s-.87-3-3.62-4.66l-3-1.77Z" transform="translate(-335.65 -194.66)"/><path class="cls-62" d="M913.89,514v5.43l-16.33-9.66V486.31l6.44,3.81v18Z" transform="translate(-335.65 -194.66)"/><path class="cls-63" d="M940.55,523.48c0,6.3-4.29,9.19-13,4L918.25,522V498.55L927.5,504C936.29,509.23,940.55,517.18,940.55,523.48Zm-6-3.53c0-3.49-2.15-7.57-7.51-10.75l-2.42-1.43v12.61l2.42,1.43C932.43,525,934.58,523.4,934.58,519.95Z" transform="translate(-335.65 -194.66)"/><path class="cls-64" d="M411.34,327.77h-6V275.24a6.73,6.73,0,0,1,10-5.88l79.53,46-3,5.22-79.49-46a.66.66,0,0,0-.66,0,.68.68,0,0,0-.35.61Z" transform="translate(-335.65 -194.66)"/><path class="cls-65" d="M873.12,549.11a10,10,0,0,1-5-1.36l-86.4-50,3-5.22,86.4,50a4,4,0,0,0,6-3.44V518h6v21a10,10,0,0,1-10,10Z" transform="translate(-335.65 -194.66)"/></g></svg>